G04 EAGLE Gerber RS-274X export*
G75*
%MOMM*%
%FSLAX34Y34*%
%LPD*%
%INSilkscreen Bottom*%
%IPPOS*%
%AMOC8*
5,1,8,0,0,1.08239X$1,22.5*%
G01*
%ADD10C,0.254000*%
%ADD11R,14.478000X2.667000*%

G36*
X15227Y249563D02*
X15227Y249563D01*
X15234Y249569D01*
X15240Y249562D01*
X129540Y249562D01*
X129587Y249598D01*
X129582Y249605D01*
X129589Y249611D01*
X129589Y281249D01*
X129553Y281297D01*
X129546Y281291D01*
X129540Y281298D01*
X15240Y281298D01*
X15193Y281262D01*
X15198Y281255D01*
X15191Y281249D01*
X15191Y249611D01*
X15227Y249563D01*
G37*
%LPC*%
G36*
X126553Y278262D02*
X126553Y278262D01*
X126553Y252598D01*
X40824Y252598D01*
X40824Y278262D01*
X126553Y278262D01*
G37*
%LPD*%
G36*
X65583Y257732D02*
X65583Y257732D01*
X65596Y257733D01*
X68862Y262615D01*
X71438Y262615D01*
X71438Y257760D01*
X71474Y257713D01*
X71481Y257719D01*
X71487Y257711D01*
X74859Y257711D01*
X74906Y257747D01*
X74901Y257755D01*
X74908Y257760D01*
X74908Y273088D01*
X74872Y273136D01*
X74865Y273130D01*
X74859Y273137D01*
X67852Y273137D01*
X67850Y273136D01*
X67849Y273137D01*
X66555Y273053D01*
X66551Y273050D01*
X66548Y273052D01*
X65406Y272802D01*
X65402Y272797D01*
X65397Y272799D01*
X64408Y272382D01*
X64404Y272375D01*
X64399Y272377D01*
X63561Y271791D01*
X63558Y271783D01*
X63552Y271784D01*
X62886Y271049D01*
X62885Y271040D01*
X62879Y271039D01*
X62404Y270173D01*
X62405Y270165D01*
X62400Y270163D01*
X62365Y270039D01*
X62364Y270039D01*
X62364Y270038D01*
X62197Y269448D01*
X62127Y269201D01*
X62116Y269166D01*
X62118Y269158D01*
X62114Y269155D01*
X62020Y268029D01*
X62021Y268026D01*
X62019Y268025D01*
X62019Y267979D01*
X62023Y267975D01*
X62020Y267972D01*
X62250Y266286D01*
X62258Y266277D01*
X62255Y266270D01*
X62939Y264928D01*
X62950Y264922D01*
X62949Y264915D01*
X63997Y263904D01*
X64007Y263902D01*
X64008Y263896D01*
X65289Y263218D01*
X61571Y257788D01*
X61571Y257779D01*
X61564Y257774D01*
X61572Y257763D01*
X61574Y257729D01*
X61597Y257730D01*
X61612Y257711D01*
X65555Y257711D01*
X65583Y257732D01*
G37*
G36*
X106842Y257770D02*
X106842Y257770D01*
X106836Y257778D01*
X106844Y257783D01*
X106844Y273111D01*
X106808Y273158D01*
X106800Y273153D01*
X106794Y273160D01*
X100531Y273160D01*
X100528Y273158D01*
X100527Y273160D01*
X99215Y273060D01*
X99210Y273056D01*
X99207Y273058D01*
X98050Y272770D01*
X98045Y272765D01*
X98041Y272767D01*
X97039Y272301D01*
X97036Y272294D01*
X97030Y272296D01*
X96192Y271676D01*
X96190Y271669D01*
X96184Y271669D01*
X95511Y270897D01*
X95511Y270889D01*
X95505Y270888D01*
X95012Y269980D01*
X95014Y269972D01*
X95008Y269970D01*
X94985Y269891D01*
X94957Y269792D01*
X94928Y269694D01*
X94899Y269595D01*
X94871Y269497D01*
X94842Y269398D01*
X94813Y269300D01*
X94785Y269202D01*
X94710Y268941D01*
X94712Y268935D01*
X94708Y268932D01*
X94607Y267800D01*
X94608Y267798D01*
X94606Y267796D01*
X94606Y267750D01*
X94619Y267734D01*
X94623Y267714D01*
X94739Y266515D01*
X94744Y266509D01*
X94741Y266504D01*
X95100Y265415D01*
X95107Y265410D01*
X95105Y265404D01*
X95678Y264477D01*
X95686Y264474D01*
X95685Y264468D01*
X96438Y263704D01*
X96446Y263703D01*
X96446Y263697D01*
X97357Y263107D01*
X97364Y263107D01*
X97365Y263102D01*
X98421Y262675D01*
X98427Y262677D01*
X98428Y262673D01*
X99602Y262416D01*
X99607Y262419D01*
X99609Y262415D01*
X100859Y262329D01*
X100861Y262331D01*
X100862Y262329D01*
X103373Y262329D01*
X103373Y257783D01*
X103409Y257736D01*
X103417Y257742D01*
X103422Y257734D01*
X106794Y257734D01*
X106842Y257770D01*
G37*
G36*
X49145Y257731D02*
X49145Y257731D01*
X49158Y257731D01*
X53879Y264211D01*
X55596Y262427D01*
X55596Y257760D01*
X55632Y257713D01*
X55639Y257719D01*
X55645Y257711D01*
X59017Y257711D01*
X59064Y257747D01*
X59059Y257755D01*
X59066Y257760D01*
X59066Y273088D01*
X59030Y273136D01*
X59023Y273130D01*
X59017Y273137D01*
X55645Y273137D01*
X55598Y273101D01*
X55602Y273095D01*
X55598Y273092D01*
X55599Y273090D01*
X55596Y273088D01*
X55596Y266516D01*
X53084Y269221D01*
X49463Y273122D01*
X49437Y273126D01*
X49436Y273128D01*
X49434Y273128D01*
X49427Y273137D01*
X45358Y273137D01*
X45348Y273130D01*
X45335Y273132D01*
X45333Y273118D01*
X45311Y273101D01*
X45327Y273080D01*
X45323Y273054D01*
X49065Y269154D01*
X51535Y266580D01*
X45033Y257790D01*
X45033Y257780D01*
X45025Y257774D01*
X45033Y257763D01*
X45033Y257730D01*
X45058Y257731D01*
X45072Y257711D01*
X49119Y257711D01*
X49145Y257731D01*
G37*
G36*
X34328Y392438D02*
X34328Y392438D01*
X34398Y392435D01*
X34486Y392454D01*
X34575Y392463D01*
X34641Y392487D01*
X34709Y392502D01*
X34858Y392565D01*
X47558Y398915D01*
X47561Y398917D01*
X47566Y398919D01*
X47580Y398928D01*
X47594Y398934D01*
X47678Y398995D01*
X47694Y399006D01*
X47822Y399092D01*
X47825Y399095D01*
X47829Y399097D01*
X47846Y399117D01*
X47851Y399121D01*
X47877Y399152D01*
X47930Y399212D01*
X48034Y399328D01*
X48036Y399332D01*
X48039Y399336D01*
X48109Y399472D01*
X48181Y399611D01*
X48182Y399615D01*
X48184Y399619D01*
X48218Y399769D01*
X48253Y399920D01*
X48253Y399925D01*
X48254Y399929D01*
X48249Y400084D01*
X48245Y400238D01*
X48244Y400243D01*
X48244Y400247D01*
X48201Y400396D01*
X48159Y400544D01*
X48157Y400548D01*
X48155Y400553D01*
X48077Y400686D01*
X47999Y400820D01*
X47996Y400823D01*
X47994Y400827D01*
X47888Y400948D01*
X41538Y407298D01*
X41534Y407300D01*
X41531Y407304D01*
X41454Y407363D01*
X41395Y407419D01*
X41349Y407444D01*
X41286Y407492D01*
X41282Y407494D01*
X41279Y407497D01*
X41165Y407545D01*
X41116Y407572D01*
X41082Y407581D01*
X40994Y407619D01*
X40990Y407620D01*
X40986Y407621D01*
X40840Y407643D01*
X40808Y407652D01*
X40775Y407654D01*
X40680Y407669D01*
X40676Y407668D01*
X40671Y407669D01*
X40519Y407653D01*
X40364Y407639D01*
X40359Y407637D01*
X40355Y407637D01*
X40211Y407584D01*
X40064Y407531D01*
X40061Y407529D01*
X40056Y407527D01*
X39930Y407440D01*
X39801Y407353D01*
X39798Y407349D01*
X39795Y407347D01*
X39773Y407322D01*
X39768Y407318D01*
X39730Y407273D01*
X39693Y407230D01*
X39591Y407114D01*
X39589Y407110D01*
X39586Y407107D01*
X39569Y407078D01*
X39565Y407073D01*
X39560Y407062D01*
X39505Y406968D01*
X33155Y394268D01*
X33132Y394202D01*
X33099Y394139D01*
X33079Y394052D01*
X33049Y393968D01*
X33043Y393898D01*
X33027Y393830D01*
X33029Y393740D01*
X33022Y393651D01*
X33033Y393582D01*
X33035Y393512D01*
X33059Y393425D01*
X33074Y393337D01*
X33102Y393273D01*
X33121Y393206D01*
X33166Y393128D01*
X33202Y393046D01*
X33246Y392991D01*
X33281Y392930D01*
X33344Y392867D01*
X33399Y392796D01*
X33454Y392754D01*
X33504Y392704D01*
X33580Y392657D01*
X33652Y392603D01*
X33716Y392576D01*
X33776Y392540D01*
X33862Y392514D01*
X33944Y392479D01*
X34014Y392468D01*
X34081Y392448D01*
X34170Y392445D01*
X34259Y392431D01*
X34328Y392438D01*
G37*
G36*
X34328Y373388D02*
X34328Y373388D01*
X34398Y373385D01*
X34486Y373404D01*
X34575Y373413D01*
X34641Y373437D01*
X34709Y373452D01*
X34858Y373515D01*
X47558Y379865D01*
X47561Y379867D01*
X47566Y379869D01*
X47580Y379878D01*
X47594Y379884D01*
X47678Y379945D01*
X47694Y379956D01*
X47822Y380042D01*
X47825Y380045D01*
X47829Y380047D01*
X47846Y380067D01*
X47851Y380071D01*
X47877Y380102D01*
X47930Y380162D01*
X48034Y380278D01*
X48036Y380282D01*
X48039Y380286D01*
X48109Y380422D01*
X48181Y380561D01*
X48182Y380565D01*
X48184Y380569D01*
X48218Y380719D01*
X48253Y380870D01*
X48253Y380875D01*
X48254Y380879D01*
X48249Y381034D01*
X48245Y381188D01*
X48244Y381193D01*
X48244Y381197D01*
X48201Y381346D01*
X48159Y381494D01*
X48157Y381498D01*
X48155Y381503D01*
X48077Y381636D01*
X47999Y381770D01*
X47996Y381773D01*
X47994Y381777D01*
X47888Y381898D01*
X41538Y388248D01*
X41534Y388250D01*
X41531Y388254D01*
X41454Y388313D01*
X41395Y388369D01*
X41349Y388394D01*
X41286Y388442D01*
X41282Y388444D01*
X41279Y388447D01*
X41165Y388495D01*
X41116Y388522D01*
X41082Y388531D01*
X40994Y388569D01*
X40990Y388570D01*
X40986Y388571D01*
X40840Y388593D01*
X40808Y388602D01*
X40775Y388604D01*
X40680Y388619D01*
X40676Y388618D01*
X40671Y388619D01*
X40519Y388603D01*
X40364Y388589D01*
X40359Y388587D01*
X40355Y388587D01*
X40211Y388534D01*
X40064Y388481D01*
X40061Y388479D01*
X40056Y388477D01*
X39930Y388390D01*
X39801Y388303D01*
X39798Y388299D01*
X39795Y388297D01*
X39773Y388272D01*
X39768Y388268D01*
X39730Y388223D01*
X39693Y388180D01*
X39591Y388064D01*
X39589Y388060D01*
X39586Y388057D01*
X39569Y388028D01*
X39565Y388023D01*
X39560Y388012D01*
X39505Y387918D01*
X33155Y375218D01*
X33132Y375152D01*
X33099Y375089D01*
X33079Y375002D01*
X33049Y374918D01*
X33043Y374848D01*
X33027Y374780D01*
X33029Y374690D01*
X33022Y374601D01*
X33033Y374532D01*
X33035Y374462D01*
X33059Y374375D01*
X33074Y374287D01*
X33102Y374223D01*
X33121Y374156D01*
X33166Y374078D01*
X33202Y373996D01*
X33246Y373941D01*
X33281Y373880D01*
X33344Y373817D01*
X33399Y373746D01*
X33454Y373704D01*
X33504Y373654D01*
X33580Y373607D01*
X33652Y373553D01*
X33716Y373526D01*
X33776Y373490D01*
X33862Y373464D01*
X33944Y373429D01*
X34014Y373418D01*
X34081Y373398D01*
X34170Y373395D01*
X34259Y373381D01*
X34328Y373388D01*
G37*
G36*
X110608Y392443D02*
X110608Y392443D01*
X110678Y392445D01*
X110765Y392469D01*
X110853Y392484D01*
X110917Y392512D01*
X110984Y392531D01*
X111062Y392576D01*
X111144Y392612D01*
X111199Y392656D01*
X111260Y392691D01*
X111324Y392754D01*
X111394Y392809D01*
X111436Y392864D01*
X111486Y392914D01*
X111533Y392990D01*
X111587Y393062D01*
X111614Y393126D01*
X111651Y393186D01*
X111676Y393272D01*
X111711Y393354D01*
X111722Y393424D01*
X111742Y393491D01*
X111745Y393580D01*
X111759Y393669D01*
X111752Y393738D01*
X111755Y393808D01*
X111736Y393896D01*
X111727Y393985D01*
X111703Y394051D01*
X111688Y394119D01*
X111625Y394268D01*
X105275Y406968D01*
X105273Y406971D01*
X105271Y406976D01*
X105184Y407104D01*
X105177Y407115D01*
X105123Y407201D01*
X105114Y407208D01*
X105099Y407232D01*
X105095Y407235D01*
X105093Y407239D01*
X104978Y407340D01*
X104904Y407406D01*
X104891Y407419D01*
X104889Y407420D01*
X104862Y407444D01*
X104858Y407446D01*
X104854Y407449D01*
X104718Y407519D01*
X104579Y407591D01*
X104575Y407592D01*
X104571Y407594D01*
X104421Y407628D01*
X104270Y407663D01*
X104265Y407663D01*
X104261Y407664D01*
X104163Y407661D01*
X104144Y407662D01*
X104133Y407662D01*
X104110Y407659D01*
X104106Y407659D01*
X103952Y407655D01*
X103947Y407654D01*
X103943Y407654D01*
X103844Y407625D01*
X103817Y407622D01*
X103776Y407606D01*
X103646Y407569D01*
X103642Y407567D01*
X103637Y407565D01*
X103562Y407521D01*
X103521Y407505D01*
X103466Y407465D01*
X103370Y407409D01*
X103367Y407406D01*
X103363Y407404D01*
X103275Y407326D01*
X103264Y407318D01*
X103259Y407312D01*
X103243Y407298D01*
X96893Y400948D01*
X96890Y400944D01*
X96886Y400941D01*
X96793Y400819D01*
X96698Y400696D01*
X96696Y400692D01*
X96693Y400689D01*
X96633Y400547D01*
X96571Y400404D01*
X96571Y400400D01*
X96569Y400396D01*
X96546Y400244D01*
X96521Y400090D01*
X96522Y400086D01*
X96521Y400081D01*
X96537Y399929D01*
X96551Y399774D01*
X96553Y399769D01*
X96553Y399765D01*
X96606Y399621D01*
X96659Y399474D01*
X96661Y399471D01*
X96663Y399466D01*
X96750Y399340D01*
X96813Y399247D01*
X96819Y399238D01*
X96820Y399237D01*
X96837Y399211D01*
X96841Y399208D01*
X96843Y399205D01*
X96960Y399103D01*
X96998Y399069D01*
X97050Y399020D01*
X97059Y399015D01*
X97076Y399001D01*
X97080Y398999D01*
X97083Y398996D01*
X97222Y398915D01*
X109922Y392565D01*
X109988Y392542D01*
X110051Y392509D01*
X110138Y392489D01*
X110222Y392459D01*
X110292Y392453D01*
X110360Y392437D01*
X110450Y392439D01*
X110539Y392432D01*
X110608Y392443D01*
G37*
G36*
X110608Y373393D02*
X110608Y373393D01*
X110678Y373395D01*
X110765Y373419D01*
X110853Y373434D01*
X110917Y373462D01*
X110984Y373481D01*
X111062Y373526D01*
X111144Y373562D01*
X111199Y373606D01*
X111260Y373641D01*
X111324Y373704D01*
X111394Y373759D01*
X111436Y373814D01*
X111486Y373864D01*
X111533Y373940D01*
X111587Y374012D01*
X111614Y374076D01*
X111651Y374136D01*
X111676Y374222D01*
X111711Y374304D01*
X111722Y374374D01*
X111742Y374441D01*
X111745Y374530D01*
X111759Y374619D01*
X111752Y374688D01*
X111755Y374758D01*
X111736Y374846D01*
X111727Y374935D01*
X111703Y375001D01*
X111688Y375069D01*
X111625Y375218D01*
X105275Y387918D01*
X105273Y387921D01*
X105271Y387926D01*
X105184Y388054D01*
X105177Y388065D01*
X105123Y388151D01*
X105114Y388158D01*
X105099Y388182D01*
X105095Y388185D01*
X105093Y388189D01*
X104978Y388290D01*
X104904Y388356D01*
X104891Y388369D01*
X104889Y388370D01*
X104862Y388394D01*
X104858Y388396D01*
X104854Y388399D01*
X104718Y388469D01*
X104579Y388541D01*
X104575Y388542D01*
X104571Y388544D01*
X104421Y388578D01*
X104270Y388613D01*
X104265Y388613D01*
X104261Y388614D01*
X104163Y388611D01*
X104144Y388612D01*
X104133Y388612D01*
X104110Y388609D01*
X104106Y388609D01*
X103952Y388605D01*
X103947Y388604D01*
X103943Y388604D01*
X103844Y388575D01*
X103817Y388572D01*
X103776Y388556D01*
X103646Y388519D01*
X103642Y388517D01*
X103637Y388515D01*
X103562Y388471D01*
X103521Y388455D01*
X103466Y388415D01*
X103370Y388359D01*
X103367Y388356D01*
X103363Y388354D01*
X103275Y388276D01*
X103264Y388268D01*
X103259Y388262D01*
X103243Y388248D01*
X96893Y381898D01*
X96890Y381894D01*
X96886Y381891D01*
X96793Y381769D01*
X96698Y381646D01*
X96696Y381642D01*
X96693Y381639D01*
X96633Y381497D01*
X96571Y381354D01*
X96571Y381350D01*
X96569Y381346D01*
X96546Y381194D01*
X96521Y381040D01*
X96522Y381036D01*
X96521Y381031D01*
X96537Y380879D01*
X96551Y380724D01*
X96553Y380719D01*
X96553Y380715D01*
X96606Y380571D01*
X96659Y380424D01*
X96661Y380421D01*
X96663Y380416D01*
X96750Y380290D01*
X96813Y380197D01*
X96819Y380188D01*
X96820Y380187D01*
X96837Y380161D01*
X96841Y380158D01*
X96843Y380155D01*
X96960Y380053D01*
X96998Y380019D01*
X97050Y379970D01*
X97059Y379965D01*
X97076Y379951D01*
X97080Y379949D01*
X97083Y379946D01*
X97222Y379865D01*
X109922Y373515D01*
X109988Y373492D01*
X110051Y373459D01*
X110138Y373439D01*
X110222Y373409D01*
X110292Y373403D01*
X110360Y373387D01*
X110450Y373389D01*
X110539Y373382D01*
X110608Y373393D01*
G37*
G36*
X40674Y449591D02*
X40674Y449591D01*
X40828Y449595D01*
X40833Y449596D01*
X40837Y449596D01*
X40986Y449639D01*
X41134Y449681D01*
X41138Y449683D01*
X41143Y449685D01*
X41276Y449763D01*
X41410Y449841D01*
X41413Y449844D01*
X41417Y449846D01*
X41538Y449953D01*
X47888Y456303D01*
X47890Y456306D01*
X47894Y456309D01*
X47983Y456426D01*
X48058Y456516D01*
X48065Y456531D01*
X48082Y456554D01*
X48084Y456558D01*
X48087Y456562D01*
X48147Y456703D01*
X48160Y456734D01*
X48193Y456803D01*
X48195Y456814D01*
X48209Y456846D01*
X48210Y456850D01*
X48211Y456854D01*
X48234Y457006D01*
X48245Y457076D01*
X48253Y457116D01*
X48253Y457122D01*
X48259Y457160D01*
X48258Y457164D01*
X48259Y457169D01*
X48243Y457321D01*
X48234Y457424D01*
X48233Y457433D01*
X48233Y457435D01*
X48229Y457476D01*
X48227Y457481D01*
X48227Y457485D01*
X48174Y457629D01*
X48121Y457776D01*
X48119Y457779D01*
X48117Y457784D01*
X48030Y457910D01*
X47943Y458039D01*
X47939Y458042D01*
X47937Y458045D01*
X47820Y458147D01*
X47704Y458249D01*
X47700Y458251D01*
X47697Y458254D01*
X47558Y458335D01*
X34858Y464685D01*
X34810Y464702D01*
X34774Y464722D01*
X34757Y464726D01*
X34729Y464741D01*
X34642Y464761D01*
X34558Y464791D01*
X34488Y464797D01*
X34420Y464813D01*
X34330Y464811D01*
X34241Y464818D01*
X34172Y464807D01*
X34102Y464805D01*
X34015Y464781D01*
X33927Y464766D01*
X33863Y464738D01*
X33796Y464719D01*
X33718Y464674D01*
X33636Y464638D01*
X33581Y464595D01*
X33520Y464559D01*
X33457Y464496D01*
X33386Y464441D01*
X33344Y464386D01*
X33294Y464336D01*
X33247Y464260D01*
X33193Y464189D01*
X33166Y464124D01*
X33130Y464064D01*
X33104Y463978D01*
X33069Y463896D01*
X33058Y463826D01*
X33038Y463759D01*
X33035Y463670D01*
X33029Y463632D01*
X33027Y463623D01*
X33027Y463621D01*
X33021Y463581D01*
X33028Y463512D01*
X33025Y463442D01*
X33044Y463356D01*
X33047Y463306D01*
X33050Y463295D01*
X33053Y463265D01*
X33077Y463199D01*
X33092Y463131D01*
X33141Y463015D01*
X33145Y463003D01*
X33148Y462998D01*
X33155Y462982D01*
X39505Y450282D01*
X39507Y450279D01*
X39509Y450274D01*
X39596Y450146D01*
X39682Y450018D01*
X39685Y450015D01*
X39687Y450011D01*
X39802Y449910D01*
X39918Y449806D01*
X39922Y449804D01*
X39926Y449801D01*
X40062Y449731D01*
X40201Y449659D01*
X40205Y449658D01*
X40209Y449656D01*
X40359Y449623D01*
X40510Y449587D01*
X40515Y449587D01*
X40519Y449587D01*
X40674Y449591D01*
G37*
G36*
X40674Y430541D02*
X40674Y430541D01*
X40828Y430545D01*
X40833Y430546D01*
X40837Y430546D01*
X40986Y430589D01*
X41134Y430631D01*
X41138Y430633D01*
X41143Y430635D01*
X41276Y430713D01*
X41410Y430791D01*
X41413Y430794D01*
X41417Y430796D01*
X41538Y430903D01*
X47888Y437253D01*
X47890Y437256D01*
X47894Y437259D01*
X47983Y437376D01*
X48058Y437466D01*
X48065Y437481D01*
X48082Y437504D01*
X48084Y437508D01*
X48087Y437512D01*
X48147Y437653D01*
X48160Y437684D01*
X48193Y437753D01*
X48195Y437764D01*
X48209Y437796D01*
X48210Y437800D01*
X48211Y437804D01*
X48234Y437956D01*
X48245Y438026D01*
X48253Y438066D01*
X48253Y438072D01*
X48259Y438110D01*
X48258Y438114D01*
X48259Y438119D01*
X48243Y438271D01*
X48234Y438374D01*
X48233Y438383D01*
X48233Y438385D01*
X48229Y438426D01*
X48227Y438431D01*
X48227Y438435D01*
X48174Y438579D01*
X48121Y438726D01*
X48119Y438729D01*
X48117Y438734D01*
X48030Y438860D01*
X47943Y438989D01*
X47939Y438992D01*
X47937Y438995D01*
X47820Y439097D01*
X47704Y439199D01*
X47700Y439201D01*
X47697Y439204D01*
X47558Y439285D01*
X34858Y445635D01*
X34810Y445652D01*
X34774Y445672D01*
X34757Y445676D01*
X34729Y445691D01*
X34642Y445711D01*
X34558Y445741D01*
X34488Y445747D01*
X34420Y445763D01*
X34330Y445761D01*
X34241Y445768D01*
X34172Y445757D01*
X34102Y445755D01*
X34015Y445731D01*
X33927Y445716D01*
X33863Y445688D01*
X33796Y445669D01*
X33718Y445624D01*
X33636Y445588D01*
X33581Y445545D01*
X33520Y445509D01*
X33457Y445446D01*
X33386Y445391D01*
X33344Y445336D01*
X33294Y445286D01*
X33247Y445210D01*
X33193Y445139D01*
X33166Y445074D01*
X33130Y445014D01*
X33104Y444928D01*
X33069Y444846D01*
X33058Y444776D01*
X33038Y444709D01*
X33035Y444620D01*
X33029Y444582D01*
X33027Y444573D01*
X33027Y444571D01*
X33021Y444531D01*
X33028Y444462D01*
X33025Y444392D01*
X33044Y444306D01*
X33047Y444256D01*
X33050Y444245D01*
X33053Y444215D01*
X33077Y444149D01*
X33092Y444081D01*
X33141Y443965D01*
X33145Y443953D01*
X33148Y443948D01*
X33155Y443932D01*
X39505Y431232D01*
X39507Y431229D01*
X39509Y431224D01*
X39596Y431096D01*
X39682Y430968D01*
X39685Y430965D01*
X39687Y430961D01*
X39802Y430860D01*
X39918Y430756D01*
X39922Y430754D01*
X39926Y430751D01*
X40062Y430681D01*
X40201Y430609D01*
X40205Y430608D01*
X40209Y430606D01*
X40359Y430573D01*
X40510Y430537D01*
X40515Y430537D01*
X40519Y430537D01*
X40674Y430541D01*
G37*
G36*
X104261Y430547D02*
X104261Y430547D01*
X104416Y430561D01*
X104421Y430563D01*
X104425Y430563D01*
X104569Y430616D01*
X104716Y430669D01*
X104719Y430671D01*
X104724Y430673D01*
X104850Y430760D01*
X104979Y430847D01*
X104982Y430851D01*
X104985Y430853D01*
X105087Y430970D01*
X105189Y431086D01*
X105191Y431090D01*
X105194Y431093D01*
X105275Y431232D01*
X111625Y443932D01*
X111648Y443998D01*
X111681Y444061D01*
X111687Y444086D01*
X111693Y444100D01*
X111704Y444157D01*
X111731Y444232D01*
X111737Y444302D01*
X111753Y444370D01*
X111752Y444406D01*
X111753Y444412D01*
X111751Y444445D01*
X111751Y444460D01*
X111758Y444549D01*
X111747Y444618D01*
X111745Y444688D01*
X111721Y444775D01*
X111706Y444863D01*
X111678Y444927D01*
X111659Y444994D01*
X111614Y445072D01*
X111578Y445154D01*
X111535Y445209D01*
X111499Y445270D01*
X111436Y445334D01*
X111381Y445404D01*
X111326Y445446D01*
X111276Y445496D01*
X111200Y445543D01*
X111129Y445597D01*
X111064Y445624D01*
X111004Y445661D01*
X110918Y445686D01*
X110836Y445721D01*
X110766Y445732D01*
X110699Y445752D01*
X110610Y445755D01*
X110521Y445769D01*
X110452Y445762D01*
X110382Y445765D01*
X110294Y445746D01*
X110205Y445737D01*
X110167Y445723D01*
X110159Y445722D01*
X110132Y445711D01*
X110071Y445698D01*
X109922Y445635D01*
X97222Y439285D01*
X97219Y439283D01*
X97214Y439281D01*
X97086Y439194D01*
X96958Y439109D01*
X96955Y439105D01*
X96951Y439103D01*
X96850Y438988D01*
X96746Y438872D01*
X96744Y438868D01*
X96741Y438864D01*
X96671Y438728D01*
X96599Y438589D01*
X96598Y438585D01*
X96596Y438581D01*
X96563Y438431D01*
X96527Y438280D01*
X96527Y438275D01*
X96527Y438271D01*
X96528Y438230D01*
X96527Y438227D01*
X96529Y438203D01*
X96531Y438116D01*
X96535Y437962D01*
X96536Y437957D01*
X96536Y437953D01*
X96546Y437918D01*
X96547Y437909D01*
X96565Y437854D01*
X96580Y437803D01*
X96621Y437656D01*
X96623Y437652D01*
X96625Y437647D01*
X96640Y437620D01*
X96645Y437607D01*
X96697Y437525D01*
X96703Y437514D01*
X96781Y437380D01*
X96784Y437377D01*
X96786Y437373D01*
X96810Y437347D01*
X96815Y437338D01*
X96827Y437327D01*
X96893Y437253D01*
X103243Y430903D01*
X103246Y430900D01*
X103249Y430896D01*
X103371Y430803D01*
X103494Y430708D01*
X103498Y430706D01*
X103502Y430703D01*
X103643Y430643D01*
X103786Y430581D01*
X103790Y430581D01*
X103794Y430579D01*
X103946Y430556D01*
X104100Y430531D01*
X104104Y430532D01*
X104109Y430531D01*
X104261Y430547D01*
G37*
G36*
X104261Y449597D02*
X104261Y449597D01*
X104416Y449611D01*
X104421Y449613D01*
X104425Y449613D01*
X104569Y449666D01*
X104716Y449719D01*
X104719Y449721D01*
X104724Y449723D01*
X104850Y449810D01*
X104979Y449897D01*
X104982Y449901D01*
X104985Y449903D01*
X105087Y450020D01*
X105189Y450136D01*
X105191Y450140D01*
X105194Y450143D01*
X105275Y450282D01*
X111625Y462982D01*
X111648Y463048D01*
X111681Y463111D01*
X111687Y463136D01*
X111693Y463150D01*
X111704Y463207D01*
X111731Y463282D01*
X111737Y463352D01*
X111753Y463420D01*
X111752Y463456D01*
X111753Y463462D01*
X111751Y463495D01*
X111751Y463510D01*
X111758Y463599D01*
X111747Y463668D01*
X111745Y463738D01*
X111721Y463825D01*
X111706Y463913D01*
X111678Y463977D01*
X111659Y464044D01*
X111614Y464122D01*
X111578Y464204D01*
X111535Y464259D01*
X111499Y464320D01*
X111436Y464384D01*
X111381Y464454D01*
X111326Y464496D01*
X111276Y464546D01*
X111200Y464593D01*
X111129Y464647D01*
X111064Y464674D01*
X111004Y464711D01*
X110918Y464736D01*
X110836Y464771D01*
X110766Y464782D01*
X110699Y464802D01*
X110610Y464805D01*
X110521Y464819D01*
X110452Y464812D01*
X110382Y464815D01*
X110294Y464796D01*
X110205Y464787D01*
X110167Y464773D01*
X110159Y464772D01*
X110132Y464761D01*
X110071Y464748D01*
X109922Y464685D01*
X97222Y458335D01*
X97219Y458333D01*
X97214Y458331D01*
X97086Y458244D01*
X96958Y458159D01*
X96955Y458155D01*
X96951Y458153D01*
X96850Y458038D01*
X96746Y457922D01*
X96744Y457918D01*
X96741Y457914D01*
X96671Y457778D01*
X96599Y457639D01*
X96598Y457635D01*
X96596Y457631D01*
X96563Y457481D01*
X96527Y457330D01*
X96527Y457325D01*
X96527Y457321D01*
X96528Y457280D01*
X96527Y457277D01*
X96529Y457253D01*
X96531Y457166D01*
X96535Y457012D01*
X96536Y457007D01*
X96536Y457003D01*
X96546Y456968D01*
X96547Y456959D01*
X96565Y456904D01*
X96580Y456853D01*
X96621Y456706D01*
X96623Y456702D01*
X96625Y456697D01*
X96640Y456670D01*
X96645Y456657D01*
X96697Y456575D01*
X96703Y456564D01*
X96781Y456430D01*
X96784Y456427D01*
X96786Y456423D01*
X96810Y456397D01*
X96815Y456388D01*
X96827Y456377D01*
X96893Y456303D01*
X103243Y449953D01*
X103246Y449950D01*
X103249Y449946D01*
X103371Y449853D01*
X103494Y449758D01*
X103498Y449756D01*
X103502Y449753D01*
X103643Y449693D01*
X103786Y449631D01*
X103790Y449631D01*
X103794Y449629D01*
X103946Y449606D01*
X104100Y449581D01*
X104104Y449582D01*
X104109Y449581D01*
X104261Y449597D01*
G37*
G36*
X115334Y257463D02*
X115334Y257463D01*
X115337Y257460D01*
X117074Y257612D01*
X117079Y257617D01*
X117083Y257614D01*
X118786Y258067D01*
X118790Y258073D01*
X118794Y258070D01*
X120403Y258834D01*
X120407Y258840D01*
X120412Y258839D01*
X121866Y259927D01*
X121873Y259954D01*
X121879Y259958D01*
X121876Y259963D01*
X121882Y259984D01*
X121872Y259987D01*
X121874Y259998D01*
X119885Y262387D01*
X119827Y262400D01*
X119826Y262393D01*
X119819Y262395D01*
X118754Y261628D01*
X117668Y261041D01*
X116517Y260668D01*
X115264Y260542D01*
X114339Y260641D01*
X113658Y260922D01*
X113237Y261360D01*
X113096Y261950D01*
X113096Y261984D01*
X113217Y262548D01*
X113658Y263000D01*
X114595Y263429D01*
X116158Y263885D01*
X116158Y263886D01*
X118273Y264526D01*
X118277Y264532D01*
X118282Y264529D01*
X119882Y265398D01*
X119886Y265407D01*
X119893Y265406D01*
X120475Y265982D01*
X120476Y265990D01*
X120482Y265991D01*
X120918Y266696D01*
X120917Y266702D01*
X120922Y266705D01*
X120921Y266706D01*
X120923Y266707D01*
X121196Y267572D01*
X121193Y267579D01*
X121198Y267582D01*
X121291Y268626D01*
X121289Y268629D01*
X121291Y268630D01*
X121291Y268676D01*
X121289Y268679D01*
X121291Y268681D01*
X121243Y269193D01*
X121196Y269685D01*
X121190Y269691D01*
X121193Y269696D01*
X120900Y270589D01*
X120893Y270594D01*
X120895Y270599D01*
X120424Y271380D01*
X120417Y271383D01*
X120418Y271388D01*
X119792Y272059D01*
X119784Y272060D01*
X119784Y272066D01*
X119007Y272603D01*
X119000Y272603D01*
X118998Y272607D01*
X118084Y273008D01*
X118078Y273006D01*
X118076Y273010D01*
X117047Y273258D01*
X117042Y273256D01*
X117039Y273259D01*
X115908Y273343D01*
X115903Y273340D01*
X115900Y273343D01*
X114282Y273216D01*
X114277Y273212D01*
X114274Y273215D01*
X112794Y272839D01*
X112790Y272834D01*
X112786Y272836D01*
X111434Y272228D01*
X111431Y272222D01*
X111427Y272224D01*
X110184Y271392D01*
X110178Y271374D01*
X110171Y271368D01*
X110175Y271363D01*
X110165Y271335D01*
X110174Y271332D01*
X110171Y271323D01*
X111662Y269160D01*
X111920Y268785D01*
X111977Y268767D01*
X111979Y268773D01*
X111984Y268770D01*
X112664Y269145D01*
X113992Y269876D01*
X114965Y270172D01*
X115938Y270272D01*
X116782Y270174D01*
X117382Y269893D01*
X117737Y269484D01*
X117809Y269177D01*
X117855Y268979D01*
X117855Y268944D01*
X117722Y268313D01*
X117226Y267838D01*
X116220Y267431D01*
X114588Y266975D01*
X114587Y266973D01*
X114586Y266974D01*
X112505Y266288D01*
X112501Y266282D01*
X112495Y266284D01*
X110964Y265369D01*
X110960Y265360D01*
X110953Y265361D01*
X110402Y264779D01*
X110401Y264771D01*
X110396Y264770D01*
X109998Y264095D01*
X109999Y264086D01*
X109993Y264084D01*
X109884Y263728D01*
X109752Y263294D01*
X109755Y263287D01*
X109751Y263285D01*
X109750Y263284D01*
X109671Y262348D01*
X109673Y262345D01*
X109671Y262344D01*
X109671Y262252D01*
X109673Y262250D01*
X109671Y262248D01*
X109774Y261176D01*
X109780Y261170D01*
X109776Y261165D01*
X110085Y260214D01*
X110092Y260209D01*
X110090Y260204D01*
X110585Y259392D01*
X110593Y259389D01*
X110592Y259383D01*
X111251Y258709D01*
X111259Y258708D01*
X111260Y258702D01*
X112078Y258176D01*
X112084Y258177D01*
X112086Y258172D01*
X113039Y257783D01*
X113045Y257785D01*
X113047Y257781D01*
X114129Y257540D01*
X114134Y257542D01*
X114137Y257539D01*
X115329Y257460D01*
X115334Y257463D01*
G37*
G36*
X65193Y194713D02*
X65193Y194713D01*
X65195Y194711D01*
X66195Y194811D01*
X66215Y194830D01*
X66228Y194829D01*
X66628Y195329D01*
X66629Y195337D01*
X66630Y195338D01*
X66629Y195340D01*
X66629Y195348D01*
X66639Y195354D01*
X66739Y196154D01*
X66737Y196158D01*
X66739Y196160D01*
X66739Y205560D01*
X66733Y205568D01*
X66737Y205574D01*
X66537Y206274D01*
X66518Y206288D01*
X66517Y206301D01*
X65917Y206701D01*
X65897Y206700D01*
X65890Y206709D01*
X61890Y206709D01*
X61886Y206706D01*
X61884Y206709D01*
X61084Y206609D01*
X61081Y206606D01*
X61078Y206608D01*
X60278Y206408D01*
X60273Y206402D01*
X60268Y206404D01*
X59468Y206004D01*
X59465Y205999D01*
X59461Y206000D01*
X58061Y205000D01*
X58058Y204989D01*
X58050Y204989D01*
X57050Y203589D01*
X57050Y203581D01*
X57045Y203579D01*
X56745Y202879D01*
X56745Y202878D01*
X56744Y202877D01*
X56444Y202077D01*
X56446Y202069D01*
X56441Y202065D01*
X56341Y201165D01*
X56343Y201162D01*
X56341Y201160D01*
X56341Y200360D01*
X56343Y200357D01*
X56341Y200355D01*
X56441Y199455D01*
X56447Y199448D01*
X56444Y199443D01*
X56744Y198643D01*
X56745Y198642D01*
X56745Y198641D01*
X57045Y197941D01*
X57047Y197939D01*
X57046Y197938D01*
X57446Y197138D01*
X57456Y197133D01*
X57455Y197125D01*
X58655Y195925D01*
X58661Y195924D01*
X58661Y195920D01*
X59361Y195420D01*
X59371Y195420D01*
X59373Y195414D01*
X60973Y194814D01*
X60981Y194816D01*
X60984Y194811D01*
X61784Y194711D01*
X61788Y194713D01*
X61790Y194711D01*
X65190Y194711D01*
X65193Y194713D01*
G37*
G36*
X120963Y180743D02*
X120963Y180743D01*
X120965Y180741D01*
X121965Y180841D01*
X121979Y180854D01*
X121991Y180852D01*
X122491Y181252D01*
X122495Y181267D01*
X122498Y181269D01*
X122496Y181272D01*
X122497Y181278D01*
X122509Y181285D01*
X122609Y182185D01*
X122607Y182188D01*
X122609Y182190D01*
X122609Y191590D01*
X122603Y191598D01*
X122607Y191604D01*
X122407Y192304D01*
X122386Y192319D01*
X122384Y192333D01*
X121684Y192733D01*
X121667Y192730D01*
X121660Y192739D01*
X116360Y192739D01*
X116350Y192732D01*
X116343Y192736D01*
X115543Y192436D01*
X115540Y192431D01*
X115536Y192433D01*
X114836Y192033D01*
X114832Y192024D01*
X114825Y192025D01*
X114225Y191425D01*
X114224Y191419D01*
X114220Y191419D01*
X113720Y190719D01*
X113720Y190709D01*
X113712Y190703D01*
X113713Y190702D01*
X113712Y190702D01*
X113512Y189902D01*
X113514Y189898D01*
X113511Y189896D01*
X113411Y189096D01*
X113415Y189089D01*
X113411Y189085D01*
X113511Y188185D01*
X113517Y188178D01*
X113514Y188173D01*
X113814Y187373D01*
X113821Y187368D01*
X113819Y187363D01*
X114000Y187091D01*
X113520Y186419D01*
X113520Y186409D01*
X113514Y186407D01*
X113214Y185607D01*
X113216Y185599D01*
X113211Y185596D01*
X113111Y184796D01*
X113113Y184793D01*
X113113Y184792D01*
X113111Y184790D01*
X113111Y183890D01*
X113116Y183883D01*
X113112Y183878D01*
X113312Y183078D01*
X113320Y183072D01*
X113317Y183066D01*
X113717Y182366D01*
X113724Y182363D01*
X113723Y182358D01*
X114323Y181658D01*
X114331Y181656D01*
X114331Y181650D01*
X115031Y181150D01*
X115041Y181150D01*
X115043Y181144D01*
X115843Y180844D01*
X115851Y180846D01*
X115854Y180841D01*
X116654Y180741D01*
X116658Y180743D01*
X116660Y180741D01*
X120960Y180741D01*
X120963Y180743D01*
G37*
%LPC*%
G36*
X20740Y257810D02*
X20740Y257810D01*
X24868Y263862D01*
X26036Y265574D01*
X26034Y265622D01*
X26036Y265629D01*
X20968Y273039D01*
X24677Y273039D01*
X27909Y268089D01*
X27913Y268088D01*
X27913Y268084D01*
X27923Y268084D01*
X27965Y268069D01*
X27972Y268088D01*
X27991Y268089D01*
X31200Y273039D01*
X35024Y273039D01*
X29955Y265583D01*
X29958Y265535D01*
X29956Y265528D01*
X31099Y263862D01*
X35252Y257810D01*
X31543Y257810D01*
X28094Y263045D01*
X28090Y263047D01*
X28090Y263051D01*
X28081Y263050D01*
X28038Y263065D01*
X28032Y263047D01*
X28012Y263045D01*
X24586Y257810D01*
X20740Y257810D01*
G37*
%LPD*%
G36*
X80794Y257740D02*
X80794Y257740D01*
X80802Y257742D01*
X85397Y269014D01*
X89992Y257742D01*
X90033Y257718D01*
X90038Y257711D01*
X93478Y257711D01*
X93481Y257714D01*
X93485Y257712D01*
X93489Y257719D01*
X93526Y257747D01*
X93514Y257763D01*
X93524Y257780D01*
X88661Y269207D01*
X86951Y273222D01*
X86912Y273245D01*
X86906Y273252D01*
X83797Y273252D01*
X83760Y273224D01*
X83752Y273222D01*
X82044Y269207D01*
X77180Y257780D01*
X77181Y257776D01*
X77177Y257774D01*
X77183Y257767D01*
X77194Y257722D01*
X77213Y257727D01*
X77225Y257711D01*
X80757Y257711D01*
X80794Y257740D01*
G37*
G36*
X76893Y194713D02*
X76893Y194713D01*
X76895Y194711D01*
X77895Y194811D01*
X77907Y194823D01*
X77917Y194819D01*
X78517Y195219D01*
X78524Y195237D01*
X78526Y195239D01*
X78525Y195241D01*
X78527Y195247D01*
X78539Y195254D01*
X78639Y196054D01*
X78637Y196058D01*
X78639Y196060D01*
X78639Y205460D01*
X78634Y205467D01*
X78638Y205472D01*
X78438Y206272D01*
X78418Y206288D01*
X78417Y206301D01*
X77817Y206701D01*
X77797Y206700D01*
X77790Y206709D01*
X70090Y206709D01*
X70074Y206697D01*
X70063Y206701D01*
X69463Y206301D01*
X69454Y206276D01*
X69442Y206271D01*
X69242Y205371D01*
X69245Y205363D01*
X69244Y205362D01*
X69246Y205359D01*
X69241Y205355D01*
X69341Y204355D01*
X69357Y204338D01*
X69355Y204325D01*
X69855Y203825D01*
X69878Y203822D01*
X69884Y203811D01*
X70684Y203711D01*
X70688Y203713D01*
X70690Y203711D01*
X74987Y203711D01*
X75641Y203617D01*
X75641Y202863D01*
X75547Y202109D01*
X72190Y202109D01*
X72182Y202103D01*
X72176Y202107D01*
X71476Y201907D01*
X71462Y201888D01*
X71449Y201887D01*
X71049Y201287D01*
X71050Y201279D01*
X71043Y201274D01*
X71049Y201266D01*
X71041Y201260D01*
X71041Y200160D01*
X71052Y200146D01*
X71047Y200136D01*
X71447Y199436D01*
X71472Y199425D01*
X71476Y199413D01*
X72176Y199213D01*
X72186Y199216D01*
X72190Y199211D01*
X75547Y199211D01*
X75641Y198457D01*
X75641Y197709D01*
X70590Y197709D01*
X70583Y197704D01*
X70578Y197708D01*
X69778Y197508D01*
X69764Y197490D01*
X69752Y197491D01*
X69352Y196991D01*
X69351Y196971D01*
X69341Y196964D01*
X69241Y195864D01*
X69247Y195854D01*
X69242Y195848D01*
X69442Y195048D01*
X69465Y195029D01*
X69468Y195016D01*
X70068Y194716D01*
X70084Y194719D01*
X70090Y194711D01*
X76890Y194711D01*
X76893Y194713D01*
G37*
G36*
X92565Y177048D02*
X92565Y177048D01*
X92572Y177042D01*
X93372Y177242D01*
X93375Y177246D01*
X93377Y177244D01*
X94177Y177544D01*
X94180Y177549D01*
X94184Y177547D01*
X95084Y178047D01*
X95087Y178053D01*
X95092Y178052D01*
X95692Y178552D01*
X95700Y178588D01*
X95709Y178597D01*
X95609Y179297D01*
X95601Y179305D01*
X95604Y179312D01*
X95204Y180112D01*
X95191Y180118D01*
X95192Y180128D01*
X94592Y180628D01*
X94569Y180629D01*
X94564Y180636D01*
X94551Y180636D01*
X94548Y180633D01*
X94543Y180636D01*
X93743Y180336D01*
X93741Y180333D01*
X93738Y180334D01*
X92945Y179938D01*
X92263Y179840D01*
X91488Y180034D01*
X91005Y180612D01*
X90809Y181495D01*
X90809Y181871D01*
X91325Y181355D01*
X91344Y181353D01*
X91348Y181342D01*
X92148Y181142D01*
X92152Y181144D01*
X92154Y181141D01*
X92954Y181041D01*
X92965Y181048D01*
X92972Y181042D01*
X93772Y181242D01*
X93778Y181250D01*
X93784Y181247D01*
X94484Y181647D01*
X94487Y181654D01*
X94492Y181653D01*
X95192Y182253D01*
X95193Y182258D01*
X95197Y182258D01*
X95797Y182958D01*
X95798Y182965D01*
X95803Y182966D01*
X96203Y183666D01*
X96202Y183672D01*
X96207Y183676D01*
X96206Y183677D01*
X96208Y183678D01*
X96408Y184478D01*
X96406Y184483D01*
X96409Y184485D01*
X96509Y185385D01*
X96505Y185392D01*
X96509Y185396D01*
X96409Y186196D01*
X96403Y186202D01*
X96406Y186207D01*
X96106Y187007D01*
X96101Y187010D01*
X96103Y187014D01*
X95703Y187714D01*
X95696Y187717D01*
X95697Y187722D01*
X95097Y188422D01*
X95089Y188424D01*
X95089Y188430D01*
X94389Y188930D01*
X94385Y188930D01*
X94384Y188933D01*
X93684Y189333D01*
X93671Y189331D01*
X93666Y189339D01*
X92866Y189439D01*
X92859Y189435D01*
X92855Y189439D01*
X91955Y189339D01*
X91946Y189330D01*
X91938Y189334D01*
X91144Y188937D01*
X90683Y188845D01*
X90301Y189417D01*
X90272Y189427D01*
X90265Y189439D01*
X89265Y189539D01*
X89254Y189532D01*
X89246Y189537D01*
X88546Y189337D01*
X88534Y189321D01*
X88522Y189322D01*
X88022Y188722D01*
X88021Y188702D01*
X88011Y188695D01*
X87911Y187795D01*
X87913Y187792D01*
X87911Y187790D01*
X87911Y181090D01*
X87913Y181087D01*
X87911Y181085D01*
X88011Y180185D01*
X88017Y180178D01*
X88014Y180173D01*
X88314Y179373D01*
X88322Y179368D01*
X88320Y179361D01*
X88820Y178661D01*
X88826Y178660D01*
X88825Y178655D01*
X89425Y178055D01*
X89435Y178054D01*
X89436Y178047D01*
X90136Y177647D01*
X90138Y177648D01*
X90138Y177646D01*
X90938Y177246D01*
X90950Y177248D01*
X90954Y177241D01*
X92554Y177041D01*
X92565Y177048D01*
G37*
G36*
X92701Y162969D02*
X92701Y162969D01*
X92709Y162965D01*
X93409Y163265D01*
X93416Y163276D01*
X93425Y163275D01*
X93725Y163575D01*
X93726Y163586D01*
X93728Y163588D01*
X93727Y163590D01*
X93727Y163594D01*
X93738Y163598D01*
X93743Y163618D01*
X93762Y163577D01*
X93763Y163569D01*
X94363Y163169D01*
X94375Y163170D01*
X94378Y163162D01*
X95178Y162962D01*
X95186Y162966D01*
X95190Y162961D01*
X96090Y162961D01*
X96101Y162969D01*
X96109Y162965D01*
X96809Y163265D01*
X96811Y163267D01*
X96812Y163266D01*
X97612Y163666D01*
X97618Y163679D01*
X97627Y163678D01*
X98227Y164378D01*
X98228Y164381D01*
X98230Y164381D01*
X98730Y165081D01*
X98730Y165085D01*
X98733Y165086D01*
X99133Y165786D01*
X99131Y165795D01*
X99138Y165798D01*
X99338Y166598D01*
X99334Y166606D01*
X99339Y166610D01*
X99339Y167510D01*
X99336Y167514D01*
X99339Y167516D01*
X99239Y168316D01*
X99233Y168322D01*
X99236Y168327D01*
X98936Y169127D01*
X98931Y169130D01*
X98933Y169134D01*
X98533Y169834D01*
X98526Y169837D01*
X98527Y169842D01*
X97927Y170542D01*
X97919Y170544D01*
X97919Y170550D01*
X97219Y171050D01*
X97213Y171050D01*
X97212Y171054D01*
X96412Y171454D01*
X96401Y171452D01*
X96397Y171459D01*
X95697Y171559D01*
X95689Y171554D01*
X95685Y171559D01*
X94785Y171459D01*
X94778Y171453D01*
X94773Y171456D01*
X93973Y171156D01*
X93971Y171153D01*
X93968Y171154D01*
X93639Y170990D01*
X93639Y174310D01*
X93636Y174314D01*
X93639Y174316D01*
X93539Y175116D01*
X93523Y175132D01*
X93525Y175145D01*
X93325Y175345D01*
X93306Y175347D01*
X93302Y175358D01*
X92502Y175558D01*
X92494Y175554D01*
X92490Y175559D01*
X91590Y175559D01*
X91576Y175548D01*
X91566Y175553D01*
X90866Y175153D01*
X90853Y175123D01*
X90841Y175116D01*
X90741Y174316D01*
X90743Y174312D01*
X90741Y174310D01*
X90741Y164110D01*
X90747Y164102D01*
X90743Y164096D01*
X90943Y163396D01*
X90962Y163382D01*
X90963Y163369D01*
X91563Y162969D01*
X91583Y162970D01*
X91590Y162961D01*
X92690Y162961D01*
X92701Y162969D01*
G37*
G36*
X104208Y162975D02*
X104208Y162975D01*
X104222Y162972D01*
X104822Y163472D01*
X104825Y163486D01*
X104834Y163488D01*
X105633Y165085D01*
X106031Y165683D01*
X106031Y165689D01*
X106035Y165689D01*
X106047Y165717D01*
X106048Y165717D01*
X106059Y165671D01*
X106078Y165676D01*
X106090Y165661D01*
X110260Y165661D01*
X111045Y164190D01*
X111344Y163393D01*
X111366Y163379D01*
X111368Y163366D01*
X112168Y162966D01*
X112193Y162971D01*
X112204Y162963D01*
X112904Y163163D01*
X112909Y163169D01*
X112914Y163167D01*
X113814Y163667D01*
X113823Y163688D01*
X113835Y163691D01*
X114135Y164391D01*
X114129Y164416D01*
X114136Y164427D01*
X113836Y165227D01*
X113833Y165229D01*
X113834Y165231D01*
X109734Y173731D01*
X109732Y173733D01*
X109733Y173734D01*
X109333Y174434D01*
X109319Y174440D01*
X109319Y174450D01*
X108619Y174950D01*
X108605Y174950D01*
X108602Y174958D01*
X107802Y175158D01*
X107778Y175148D01*
X107766Y175153D01*
X107066Y174753D01*
X107059Y174737D01*
X107048Y174735D01*
X106748Y174235D01*
X106748Y174232D01*
X106746Y174232D01*
X102646Y165832D01*
X102246Y165032D01*
X102247Y165024D01*
X102242Y165022D01*
X102042Y164222D01*
X102054Y164196D01*
X102049Y164183D01*
X102449Y163583D01*
X102465Y163577D01*
X102466Y163567D01*
X103366Y163067D01*
X103379Y163069D01*
X103384Y163061D01*
X104184Y162961D01*
X104208Y162975D01*
G37*
G36*
X78571Y180749D02*
X78571Y180749D01*
X78579Y180745D01*
X79279Y181045D01*
X79294Y181070D01*
X79297Y181072D01*
X79307Y181076D01*
X79320Y181121D01*
X79334Y181171D01*
X79376Y181318D01*
X79377Y181318D01*
X79376Y181318D01*
X79419Y181466D01*
X79433Y181515D01*
X79475Y181663D01*
X79507Y181776D01*
X79504Y181786D01*
X79509Y181790D01*
X79509Y185280D01*
X79798Y185954D01*
X80572Y186341D01*
X81344Y186341D01*
X82019Y185859D01*
X82311Y185081D01*
X82311Y181690D01*
X82319Y181679D01*
X82315Y181671D01*
X82615Y180971D01*
X82643Y180955D01*
X82648Y180942D01*
X83448Y180742D01*
X83459Y180747D01*
X83464Y180741D01*
X84564Y180841D01*
X84579Y180854D01*
X84591Y180852D01*
X85091Y181252D01*
X85095Y181267D01*
X85098Y181269D01*
X85096Y181272D01*
X85097Y181277D01*
X85109Y181284D01*
X85209Y182084D01*
X85207Y182088D01*
X85209Y182090D01*
X85209Y192390D01*
X85202Y192399D01*
X85207Y192406D01*
X85007Y193006D01*
X84981Y193023D01*
X84977Y193036D01*
X84177Y193336D01*
X84162Y193332D01*
X84156Y193339D01*
X83056Y193239D01*
X83043Y193227D01*
X83033Y193231D01*
X82433Y192831D01*
X82423Y192803D01*
X82411Y192796D01*
X82311Y191996D01*
X82313Y191992D01*
X82311Y191990D01*
X82311Y188670D01*
X81983Y188834D01*
X81284Y189233D01*
X81271Y189231D01*
X81266Y189239D01*
X80466Y189339D01*
X80459Y189335D01*
X80455Y189339D01*
X79555Y189239D01*
X79548Y189233D01*
X79543Y189236D01*
X78743Y188936D01*
X78738Y188929D01*
X78733Y188931D01*
X78133Y188531D01*
X78129Y188522D01*
X78123Y188522D01*
X77523Y187822D01*
X77522Y187815D01*
X77517Y187814D01*
X77117Y187114D01*
X77118Y187110D01*
X77115Y187108D01*
X77114Y187107D01*
X76814Y186307D01*
X76816Y186299D01*
X76811Y186296D01*
X76711Y185496D01*
X76711Y185495D01*
X76611Y184595D01*
X76613Y184592D01*
X76611Y184590D01*
X76611Y181990D01*
X76616Y181983D01*
X76612Y181978D01*
X76812Y181178D01*
X76832Y181162D01*
X76833Y181149D01*
X77433Y180749D01*
X77453Y180750D01*
X77460Y180741D01*
X78560Y180741D01*
X78571Y180749D01*
G37*
G36*
X50167Y180746D02*
X50167Y180746D01*
X50172Y180742D01*
X50972Y180942D01*
X50975Y180946D01*
X50977Y180944D01*
X51777Y181244D01*
X51779Y181247D01*
X51782Y181246D01*
X52582Y181646D01*
X52588Y181659D01*
X52598Y181658D01*
X53098Y182258D01*
X53098Y182264D01*
X53102Y182264D01*
X53602Y183064D01*
X53601Y183070D01*
X53605Y183071D01*
X53905Y183771D01*
X53904Y183778D01*
X53908Y183781D01*
X53906Y183783D01*
X53909Y183785D01*
X54009Y184685D01*
X54007Y184688D01*
X54009Y184690D01*
X54009Y185490D01*
X54007Y185493D01*
X54009Y185495D01*
X53909Y186395D01*
X53903Y186402D01*
X53906Y186407D01*
X53606Y187207D01*
X53601Y187210D01*
X53603Y187214D01*
X53203Y187914D01*
X53197Y187917D01*
X53198Y187922D01*
X52698Y188522D01*
X52689Y188524D01*
X52689Y188530D01*
X51989Y189030D01*
X51981Y189030D01*
X51979Y189035D01*
X51279Y189335D01*
X51278Y189335D01*
X51277Y189336D01*
X50477Y189636D01*
X50469Y189634D01*
X50465Y189639D01*
X49565Y189739D01*
X49559Y189735D01*
X49555Y189739D01*
X48555Y189639D01*
X48551Y189635D01*
X48548Y189638D01*
X47748Y189438D01*
X47742Y189430D01*
X47736Y189433D01*
X47036Y189033D01*
X47033Y189027D01*
X47028Y189028D01*
X46428Y188528D01*
X46426Y188519D01*
X46420Y188519D01*
X45920Y187819D01*
X45920Y187809D01*
X45914Y187807D01*
X45614Y187007D01*
X45616Y186999D01*
X45611Y186996D01*
X45511Y186196D01*
X45513Y186192D01*
X45511Y186190D01*
X45511Y185290D01*
X45527Y185269D01*
X45525Y185255D01*
X46125Y184655D01*
X46137Y184654D01*
X46138Y184646D01*
X46938Y184246D01*
X46954Y184249D01*
X46960Y184241D01*
X50352Y184241D01*
X50869Y184068D01*
X50333Y183532D01*
X49554Y183240D01*
X48666Y183339D01*
X47872Y183438D01*
X47077Y183736D01*
X47045Y183727D01*
X47033Y183731D01*
X46433Y183331D01*
X46428Y183317D01*
X46418Y183316D01*
X45918Y182516D01*
X45920Y182492D01*
X45911Y182483D01*
X46011Y181783D01*
X46024Y181771D01*
X46021Y181760D01*
X46321Y181360D01*
X46338Y181356D01*
X46341Y181345D01*
X47041Y181045D01*
X47047Y181046D01*
X47049Y181042D01*
X47949Y180842D01*
X47954Y180844D01*
X47956Y180841D01*
X49156Y180741D01*
X49159Y180743D01*
X49160Y180741D01*
X50160Y180741D01*
X50167Y180746D01*
G37*
G36*
X46297Y162966D02*
X46297Y162966D01*
X46302Y162962D01*
X47102Y163162D01*
X47105Y163166D01*
X47107Y163164D01*
X47907Y163464D01*
X47910Y163469D01*
X47914Y163467D01*
X48614Y163867D01*
X48618Y163876D01*
X48625Y163875D01*
X49225Y164475D01*
X49226Y164487D01*
X49234Y164488D01*
X49634Y165288D01*
X49634Y165290D01*
X49635Y165291D01*
X49935Y165991D01*
X49934Y165997D01*
X49938Y165999D01*
X50138Y166899D01*
X50135Y166907D01*
X50139Y166910D01*
X50139Y167710D01*
X50137Y167713D01*
X50139Y167715D01*
X50039Y168615D01*
X50033Y168622D01*
X50036Y168627D01*
X49736Y169427D01*
X49731Y169430D01*
X49733Y169434D01*
X49333Y170134D01*
X49324Y170138D01*
X49325Y170145D01*
X48725Y170745D01*
X48721Y170745D01*
X48722Y170748D01*
X48122Y171248D01*
X48111Y171248D01*
X48109Y171255D01*
X47409Y171555D01*
X47406Y171555D01*
X47406Y171557D01*
X46506Y171857D01*
X46498Y171854D01*
X46495Y171859D01*
X45595Y171959D01*
X45589Y171955D01*
X45585Y171959D01*
X44685Y171859D01*
X44681Y171855D01*
X44678Y171858D01*
X43878Y171658D01*
X43872Y171650D01*
X43866Y171653D01*
X43166Y171253D01*
X43164Y171249D01*
X43161Y171250D01*
X42461Y170750D01*
X42458Y170739D01*
X42450Y170739D01*
X41950Y170039D01*
X41950Y170025D01*
X41942Y170022D01*
X41742Y169222D01*
X41744Y169218D01*
X41741Y169216D01*
X41641Y168416D01*
X41643Y168412D01*
X41641Y168410D01*
X41641Y167510D01*
X41657Y167489D01*
X41655Y167475D01*
X42255Y166875D01*
X42265Y166874D01*
X42266Y166867D01*
X42966Y166467D01*
X42983Y166470D01*
X42990Y166461D01*
X46390Y166461D01*
X46437Y166497D01*
X46436Y166499D01*
X46438Y166500D01*
X46442Y166519D01*
X46468Y166466D01*
X46473Y166469D01*
X46474Y166463D01*
X46999Y166288D01*
X46463Y165752D01*
X45684Y165460D01*
X44796Y165559D01*
X44002Y165658D01*
X43207Y165956D01*
X43175Y165947D01*
X43163Y165951D01*
X42563Y165551D01*
X42558Y165537D01*
X42548Y165536D01*
X42048Y164736D01*
X42050Y164712D01*
X42041Y164703D01*
X42141Y164003D01*
X42154Y163991D01*
X42151Y163980D01*
X42451Y163580D01*
X42466Y163576D01*
X42468Y163566D01*
X43068Y163266D01*
X43077Y163268D01*
X43080Y163262D01*
X44080Y163062D01*
X44084Y163064D01*
X44086Y163061D01*
X45286Y162961D01*
X45289Y162963D01*
X45290Y162961D01*
X46290Y162961D01*
X46297Y162966D01*
G37*
G36*
X63971Y180749D02*
X63971Y180749D01*
X63979Y180745D01*
X64679Y181045D01*
X64694Y181070D01*
X64697Y181072D01*
X64707Y181076D01*
X64720Y181121D01*
X64734Y181171D01*
X64776Y181318D01*
X64777Y181318D01*
X64776Y181318D01*
X64819Y181466D01*
X64833Y181515D01*
X64875Y181663D01*
X64907Y181776D01*
X64904Y181786D01*
X64909Y181790D01*
X64909Y188690D01*
X64893Y188711D01*
X64895Y188725D01*
X64395Y189225D01*
X64372Y189228D01*
X64365Y189239D01*
X63465Y189339D01*
X63459Y189335D01*
X63455Y189339D01*
X62455Y189239D01*
X62433Y189218D01*
X62419Y189217D01*
X62038Y188646D01*
X61681Y188736D01*
X60989Y189230D01*
X60971Y189230D01*
X60966Y189239D01*
X60166Y189339D01*
X60159Y189335D01*
X60155Y189339D01*
X59255Y189239D01*
X59248Y189233D01*
X59243Y189236D01*
X58443Y188936D01*
X58440Y188931D01*
X58436Y188933D01*
X57736Y188533D01*
X57731Y188522D01*
X57723Y188522D01*
X57123Y187822D01*
X57122Y187815D01*
X57117Y187814D01*
X56717Y187114D01*
X56718Y187110D01*
X56715Y187109D01*
X56415Y186409D01*
X56417Y186399D01*
X56411Y186395D01*
X56211Y184595D01*
X56213Y184592D01*
X56211Y184590D01*
X56211Y181990D01*
X56217Y181982D01*
X56213Y181976D01*
X56413Y181276D01*
X56430Y181264D01*
X56429Y181252D01*
X56929Y180852D01*
X56949Y180851D01*
X56956Y180841D01*
X58056Y180741D01*
X58069Y180749D01*
X58077Y180744D01*
X58877Y181044D01*
X58891Y181066D01*
X58904Y181068D01*
X59204Y181668D01*
X59201Y181684D01*
X59209Y181690D01*
X59209Y185085D01*
X59403Y185958D01*
X60076Y186342D01*
X60851Y186439D01*
X61625Y186053D01*
X62011Y185377D01*
X62011Y181890D01*
X62017Y181882D01*
X62013Y181876D01*
X62213Y181176D01*
X62230Y181164D01*
X62229Y181152D01*
X62729Y180752D01*
X62752Y180751D01*
X62760Y180741D01*
X63960Y180741D01*
X63971Y180749D01*
G37*
G36*
X72995Y162967D02*
X72995Y162967D01*
X73001Y162962D01*
X73901Y163162D01*
X73921Y163185D01*
X73934Y163188D01*
X74212Y163744D01*
X74567Y163566D01*
X75266Y163167D01*
X75275Y163169D01*
X75278Y163162D01*
X76078Y162962D01*
X76090Y162967D01*
X76095Y162961D01*
X76995Y163061D01*
X76999Y163065D01*
X77002Y163062D01*
X77802Y163262D01*
X77810Y163273D01*
X77819Y163270D01*
X78519Y163770D01*
X78521Y163779D01*
X78528Y163778D01*
X79028Y164378D01*
X79028Y164384D01*
X79032Y164384D01*
X79532Y165184D01*
X79531Y165190D01*
X79535Y165191D01*
X79835Y165891D01*
X79833Y165899D01*
X79838Y165902D01*
X79837Y165904D01*
X79839Y165905D01*
X79939Y166805D01*
X79937Y166808D01*
X79939Y166810D01*
X79939Y170210D01*
X79936Y170214D01*
X79939Y170216D01*
X79839Y171016D01*
X79820Y171035D01*
X79821Y171048D01*
X79321Y171448D01*
X79301Y171449D01*
X79294Y171459D01*
X78194Y171559D01*
X78181Y171551D01*
X78173Y171556D01*
X77373Y171256D01*
X77356Y171230D01*
X77343Y171226D01*
X77143Y170626D01*
X77146Y170618D01*
X77141Y170615D01*
X77041Y169715D01*
X77043Y169712D01*
X77041Y169710D01*
X77041Y167117D01*
X77025Y167062D01*
X76983Y166914D01*
X76969Y166865D01*
X76927Y166717D01*
X76884Y166569D01*
X76870Y166520D01*
X76847Y166440D01*
X76174Y165959D01*
X75303Y165959D01*
X74629Y166345D01*
X74339Y167020D01*
X74339Y170510D01*
X74331Y170521D01*
X74335Y170529D01*
X74035Y171229D01*
X74013Y171242D01*
X74009Y171255D01*
X73309Y171555D01*
X73296Y171552D01*
X73290Y171559D01*
X72190Y171559D01*
X72174Y171547D01*
X72163Y171551D01*
X71563Y171151D01*
X71555Y171128D01*
X71543Y171124D01*
X71536Y171100D01*
X71494Y170953D01*
X71480Y170903D01*
X71438Y170756D01*
X71395Y170608D01*
X71381Y170559D01*
X71343Y170424D01*
X71346Y170414D01*
X71341Y170410D01*
X71341Y164410D01*
X71344Y164406D01*
X71341Y164404D01*
X71441Y163604D01*
X71457Y163588D01*
X71455Y163575D01*
X71955Y163075D01*
X71978Y163072D01*
X71985Y163061D01*
X72985Y162961D01*
X72995Y162967D01*
G37*
G36*
X88196Y194715D02*
X88196Y194715D01*
X88200Y194712D01*
X89200Y194912D01*
X89219Y194933D01*
X89232Y194935D01*
X89532Y195435D01*
X89531Y195450D01*
X89539Y195455D01*
X89639Y196355D01*
X89637Y196358D01*
X89639Y196360D01*
X89639Y205660D01*
X89633Y205668D01*
X89637Y205674D01*
X89437Y206374D01*
X89413Y206392D01*
X89409Y206405D01*
X88709Y206705D01*
X88696Y206702D01*
X88690Y206709D01*
X87590Y206709D01*
X87576Y206698D01*
X87566Y206703D01*
X86866Y206303D01*
X86855Y206278D01*
X86843Y206274D01*
X86836Y206249D01*
X86793Y206101D01*
X86779Y206052D01*
X86737Y205904D01*
X86695Y205756D01*
X86681Y205707D01*
X86643Y205574D01*
X86646Y205564D01*
X86641Y205560D01*
X86641Y197109D01*
X81590Y197109D01*
X81562Y197088D01*
X81549Y197087D01*
X81149Y196487D01*
X81150Y196471D01*
X81141Y196465D01*
X81041Y195565D01*
X81052Y195547D01*
X81047Y195536D01*
X81447Y194836D01*
X81477Y194823D01*
X81484Y194811D01*
X82284Y194711D01*
X82288Y194713D01*
X82290Y194711D01*
X88190Y194711D01*
X88196Y194715D01*
G37*
G36*
X30767Y180746D02*
X30767Y180746D01*
X30772Y180742D01*
X31572Y180942D01*
X31575Y180946D01*
X31577Y180944D01*
X32377Y181244D01*
X32380Y181249D01*
X32384Y181247D01*
X33084Y181647D01*
X33093Y181668D01*
X33105Y181671D01*
X33405Y182371D01*
X33399Y182398D01*
X33405Y182409D01*
X33105Y183109D01*
X33096Y183115D01*
X33097Y183122D01*
X32497Y183822D01*
X32468Y183828D01*
X32460Y183839D01*
X31760Y183839D01*
X31748Y183830D01*
X31740Y183835D01*
X30842Y183436D01*
X30054Y183140D01*
X29187Y183237D01*
X28939Y183567D01*
X29672Y183842D01*
X30565Y183941D01*
X30572Y183947D01*
X30577Y183944D01*
X31377Y184244D01*
X31380Y184249D01*
X31384Y184247D01*
X32084Y184647D01*
X32089Y184658D01*
X32097Y184658D01*
X32697Y185358D01*
X32698Y185369D01*
X32705Y185371D01*
X33005Y186071D01*
X33003Y186081D01*
X33009Y186085D01*
X33109Y186985D01*
X33107Y186988D01*
X33109Y186990D01*
X33109Y187790D01*
X33101Y187801D01*
X33105Y187809D01*
X32805Y188509D01*
X32794Y188516D01*
X32795Y188525D01*
X32295Y189025D01*
X32285Y189026D01*
X32284Y189033D01*
X31584Y189433D01*
X31575Y189431D01*
X31572Y189438D01*
X30772Y189638D01*
X30767Y189636D01*
X30764Y189639D01*
X29664Y189739D01*
X29658Y189735D01*
X29655Y189739D01*
X28755Y189639D01*
X28751Y189635D01*
X28748Y189638D01*
X27148Y189238D01*
X27136Y189223D01*
X27125Y189225D01*
X26525Y188625D01*
X26520Y188588D01*
X26518Y188586D01*
X26517Y188585D01*
X26512Y188578D01*
X26712Y187778D01*
X26725Y187768D01*
X26723Y187758D01*
X27323Y187058D01*
X27346Y187053D01*
X27352Y187041D01*
X27952Y186941D01*
X27961Y186946D01*
X27972Y186946D01*
X27975Y186948D01*
X27980Y186945D01*
X28873Y187342D01*
X29754Y187440D01*
X30496Y187162D01*
X30323Y186730D01*
X29350Y186438D01*
X28554Y186339D01*
X28548Y186333D01*
X28543Y186336D01*
X27743Y186036D01*
X27740Y186031D01*
X27736Y186033D01*
X27036Y185633D01*
X27032Y185624D01*
X27025Y185625D01*
X26425Y185025D01*
X26423Y185006D01*
X26412Y185002D01*
X26212Y184202D01*
X26216Y184194D01*
X26211Y184190D01*
X26211Y183290D01*
X26216Y183283D01*
X26212Y183278D01*
X26412Y182478D01*
X26420Y182472D01*
X26417Y182466D01*
X26817Y181766D01*
X26829Y181761D01*
X26828Y181752D01*
X27428Y181252D01*
X27439Y181252D01*
X27441Y181245D01*
X28141Y180945D01*
X28146Y180946D01*
X28148Y180942D01*
X28948Y180742D01*
X28956Y180746D01*
X28960Y180741D01*
X30760Y180741D01*
X30767Y180746D01*
G37*
G36*
X66497Y162966D02*
X66497Y162966D01*
X66502Y162962D01*
X67302Y163162D01*
X67305Y163166D01*
X67307Y163164D01*
X68107Y163464D01*
X68110Y163469D01*
X68114Y163467D01*
X68814Y163867D01*
X68823Y163888D01*
X68835Y163891D01*
X69135Y164591D01*
X69129Y164618D01*
X69135Y164629D01*
X68835Y165329D01*
X68826Y165335D01*
X68827Y165342D01*
X68227Y166042D01*
X68198Y166048D01*
X68190Y166059D01*
X67490Y166059D01*
X67478Y166050D01*
X67470Y166055D01*
X66572Y165656D01*
X65784Y165360D01*
X64917Y165457D01*
X64669Y165787D01*
X65402Y166062D01*
X66295Y166161D01*
X66302Y166167D01*
X66307Y166164D01*
X67107Y166464D01*
X67110Y166469D01*
X67114Y166467D01*
X67814Y166867D01*
X67819Y166878D01*
X67827Y166878D01*
X68427Y167578D01*
X68428Y167589D01*
X68435Y167591D01*
X68735Y168291D01*
X68733Y168301D01*
X68739Y168305D01*
X68839Y169205D01*
X68837Y169208D01*
X68839Y169210D01*
X68839Y170010D01*
X68831Y170021D01*
X68835Y170029D01*
X68535Y170729D01*
X68524Y170736D01*
X68525Y170745D01*
X68025Y171245D01*
X68015Y171246D01*
X68014Y171253D01*
X67314Y171653D01*
X67305Y171651D01*
X67302Y171658D01*
X66502Y171858D01*
X66497Y171856D01*
X66494Y171859D01*
X65394Y171959D01*
X65388Y171955D01*
X65385Y171959D01*
X64485Y171859D01*
X64481Y171855D01*
X64478Y171858D01*
X62878Y171458D01*
X62866Y171443D01*
X62855Y171445D01*
X62255Y170845D01*
X62250Y170808D01*
X62248Y170806D01*
X62247Y170805D01*
X62242Y170798D01*
X62442Y169998D01*
X62455Y169988D01*
X62453Y169978D01*
X63053Y169278D01*
X63076Y169273D01*
X63082Y169261D01*
X63682Y169161D01*
X63691Y169166D01*
X63702Y169166D01*
X63705Y169168D01*
X63710Y169165D01*
X64603Y169562D01*
X65484Y169660D01*
X66226Y169382D01*
X66053Y168950D01*
X65080Y168658D01*
X64284Y168559D01*
X64278Y168553D01*
X64273Y168556D01*
X63473Y168256D01*
X63470Y168251D01*
X63466Y168253D01*
X62766Y167853D01*
X62762Y167844D01*
X62755Y167845D01*
X62155Y167245D01*
X62153Y167226D01*
X62142Y167222D01*
X61942Y166422D01*
X61946Y166414D01*
X61941Y166410D01*
X61941Y165510D01*
X61946Y165503D01*
X61942Y165498D01*
X62142Y164698D01*
X62150Y164692D01*
X62147Y164686D01*
X62547Y163986D01*
X62559Y163981D01*
X62558Y163972D01*
X63158Y163472D01*
X63169Y163472D01*
X63171Y163465D01*
X63871Y163165D01*
X63876Y163166D01*
X63878Y163162D01*
X64678Y162962D01*
X64686Y162966D01*
X64690Y162961D01*
X66490Y162961D01*
X66497Y162966D01*
G37*
G36*
X40367Y180746D02*
X40367Y180746D01*
X40372Y180742D01*
X41172Y180942D01*
X41175Y180946D01*
X41177Y180944D01*
X41977Y181244D01*
X41979Y181247D01*
X41982Y181246D01*
X42782Y181646D01*
X42795Y181672D01*
X42807Y181676D01*
X42832Y181762D01*
X42846Y181811D01*
X42888Y181959D01*
X42930Y182106D01*
X42944Y182156D01*
X42986Y182303D01*
X42987Y182303D01*
X42986Y182303D01*
X43007Y182376D01*
X43000Y182394D01*
X43007Y182404D01*
X42807Y183104D01*
X42795Y183113D01*
X42797Y183122D01*
X42197Y183822D01*
X42168Y183828D01*
X42160Y183839D01*
X41360Y183839D01*
X41347Y183830D01*
X41338Y183834D01*
X40540Y183435D01*
X39753Y183140D01*
X38792Y183236D01*
X38627Y183565D01*
X39273Y183842D01*
X40265Y183941D01*
X40273Y183948D01*
X40279Y183945D01*
X40979Y184245D01*
X40981Y184247D01*
X40982Y184246D01*
X41782Y184646D01*
X41790Y184661D01*
X41800Y184661D01*
X42300Y185361D01*
X42300Y185365D01*
X42303Y185366D01*
X42703Y186066D01*
X42701Y186080D01*
X42709Y186085D01*
X42809Y186985D01*
X42805Y186992D01*
X42809Y186996D01*
X42709Y187796D01*
X42705Y187800D01*
X42707Y187804D01*
X42507Y188504D01*
X42493Y188514D01*
X42495Y188525D01*
X41995Y189025D01*
X41985Y189026D01*
X41984Y189033D01*
X41284Y189433D01*
X41274Y189431D01*
X41271Y189438D01*
X40371Y189638D01*
X40366Y189636D01*
X40364Y189639D01*
X39264Y189739D01*
X39258Y189735D01*
X39254Y189739D01*
X38454Y189639D01*
X38451Y189636D01*
X38448Y189638D01*
X36848Y189238D01*
X36836Y189223D01*
X36825Y189225D01*
X36225Y188625D01*
X36220Y188588D01*
X36218Y188586D01*
X36217Y188585D01*
X36212Y188578D01*
X36412Y187778D01*
X36425Y187768D01*
X36423Y187758D01*
X37023Y187058D01*
X37046Y187053D01*
X37052Y187041D01*
X37652Y186941D01*
X37661Y186946D01*
X37671Y186946D01*
X37675Y186949D01*
X37682Y186946D01*
X38474Y187342D01*
X39452Y187440D01*
X40096Y187164D01*
X39923Y186730D01*
X39049Y186438D01*
X38155Y186339D01*
X38148Y186333D01*
X38143Y186336D01*
X37343Y186036D01*
X37340Y186031D01*
X37336Y186033D01*
X36636Y185633D01*
X36631Y185621D01*
X36622Y185622D01*
X36122Y185022D01*
X36121Y185006D01*
X36112Y185002D01*
X35912Y184202D01*
X35916Y184194D01*
X35911Y184190D01*
X35911Y183290D01*
X35914Y183286D01*
X35911Y183284D01*
X36011Y182484D01*
X36021Y182474D01*
X36017Y182466D01*
X36417Y181766D01*
X36431Y181760D01*
X36431Y181750D01*
X37131Y181250D01*
X37139Y181250D01*
X37141Y181245D01*
X37841Y180945D01*
X37846Y180946D01*
X37848Y180942D01*
X38648Y180742D01*
X38656Y180746D01*
X38660Y180741D01*
X40360Y180741D01*
X40367Y180746D01*
G37*
G36*
X88600Y159270D02*
X88600Y159270D01*
X88609Y159265D01*
X89309Y159565D01*
X89322Y159587D01*
X89335Y159591D01*
X89635Y160291D01*
X89631Y160307D01*
X89639Y160314D01*
X89539Y161414D01*
X89529Y161426D01*
X89532Y161435D01*
X89232Y161935D01*
X89207Y161945D01*
X89202Y161958D01*
X88402Y162158D01*
X88401Y162157D01*
X88401Y162158D01*
X87515Y162355D01*
X87034Y162835D01*
X86839Y163616D01*
X86839Y170410D01*
X86834Y170417D01*
X86838Y170422D01*
X86638Y171222D01*
X86616Y171239D01*
X86614Y171253D01*
X85921Y171649D01*
X85001Y172661D01*
X85790Y172661D01*
X85800Y172668D01*
X85807Y172664D01*
X86607Y172964D01*
X86625Y172992D01*
X86637Y172996D01*
X86677Y173136D01*
X86691Y173185D01*
X86733Y173333D01*
X86734Y173333D01*
X86733Y173333D01*
X86776Y173481D01*
X86790Y173530D01*
X86832Y173678D01*
X86837Y173696D01*
X86834Y173706D01*
X86839Y173710D01*
X86839Y174610D01*
X86831Y174621D01*
X86835Y174629D01*
X86535Y175329D01*
X86507Y175345D01*
X86502Y175358D01*
X85702Y175558D01*
X85691Y175553D01*
X85686Y175559D01*
X84586Y175459D01*
X84571Y175446D01*
X84559Y175448D01*
X84059Y175048D01*
X84053Y175022D01*
X84041Y175015D01*
X83941Y174115D01*
X83945Y174108D01*
X83941Y174104D01*
X84041Y173304D01*
X84059Y173286D01*
X84058Y173272D01*
X84651Y172779D01*
X85218Y171643D01*
X84478Y171458D01*
X84462Y171438D01*
X84449Y171437D01*
X84049Y170837D01*
X84050Y170821D01*
X84041Y170815D01*
X83941Y169915D01*
X83943Y169912D01*
X83941Y169910D01*
X83941Y163210D01*
X83943Y163207D01*
X83941Y163205D01*
X84041Y162305D01*
X84048Y162297D01*
X84045Y162291D01*
X84345Y161591D01*
X84348Y161588D01*
X84347Y161586D01*
X84747Y160886D01*
X84756Y160882D01*
X84755Y160875D01*
X85355Y160275D01*
X85363Y160274D01*
X85364Y160268D01*
X86164Y159768D01*
X86170Y159769D01*
X86171Y159765D01*
X86871Y159465D01*
X86880Y159467D01*
X86884Y159461D01*
X87684Y159361D01*
X87685Y159361D01*
X88585Y159261D01*
X88600Y159270D01*
G37*
G36*
X55695Y163061D02*
X55695Y163061D01*
X55699Y163065D01*
X55702Y163062D01*
X56502Y163262D01*
X56508Y163270D01*
X56514Y163267D01*
X57214Y163667D01*
X57220Y163679D01*
X57228Y163679D01*
X57628Y164179D01*
X57629Y164189D01*
X57635Y164191D01*
X57935Y164891D01*
X57934Y164897D01*
X57938Y164899D01*
X58138Y165799D01*
X58136Y165803D01*
X58137Y165804D01*
X58135Y165807D01*
X58139Y165810D01*
X58139Y168376D01*
X59408Y168864D01*
X59426Y168893D01*
X59438Y168898D01*
X59638Y169698D01*
X59634Y169706D01*
X59639Y169710D01*
X59639Y170610D01*
X59628Y170624D01*
X59633Y170634D01*
X59233Y171334D01*
X59208Y171345D01*
X59204Y171357D01*
X58516Y171554D01*
X58139Y171930D01*
X58139Y173610D01*
X58130Y173623D01*
X58134Y173632D01*
X57834Y174232D01*
X57811Y174243D01*
X57807Y174256D01*
X57007Y174556D01*
X56992Y174552D01*
X56985Y174559D01*
X55985Y174459D01*
X55970Y174445D01*
X55958Y174448D01*
X55358Y173948D01*
X55353Y173923D01*
X55341Y173916D01*
X55241Y173116D01*
X55243Y173112D01*
X55241Y173110D01*
X55241Y171465D01*
X54395Y171559D01*
X54392Y171557D01*
X54390Y171559D01*
X53590Y171559D01*
X53574Y171547D01*
X53563Y171551D01*
X52963Y171151D01*
X52954Y171126D01*
X52942Y171121D01*
X52742Y170221D01*
X52745Y170214D01*
X52746Y170212D01*
X52748Y170207D01*
X52742Y170200D01*
X52942Y169200D01*
X52957Y169187D01*
X52955Y169175D01*
X53455Y168675D01*
X53478Y168672D01*
X53484Y168661D01*
X54284Y168561D01*
X54292Y168566D01*
X54296Y168561D01*
X55056Y168656D01*
X55241Y168102D01*
X55241Y166420D01*
X54956Y165756D01*
X54085Y165659D01*
X54077Y165652D01*
X54071Y165655D01*
X53371Y165355D01*
X53351Y165322D01*
X53341Y165315D01*
X53241Y164415D01*
X53245Y164409D01*
X53241Y164405D01*
X53341Y163505D01*
X53362Y163483D01*
X53363Y163469D01*
X53963Y163069D01*
X53979Y163070D01*
X53984Y163061D01*
X54784Y162961D01*
X54791Y162965D01*
X54795Y162961D01*
X55695Y163061D01*
G37*
G36*
X70765Y180841D02*
X70765Y180841D01*
X70769Y180845D01*
X70772Y180842D01*
X71572Y181042D01*
X71580Y181052D01*
X71587Y181049D01*
X72187Y181449D01*
X72191Y181459D01*
X72198Y181459D01*
X72598Y181959D01*
X72599Y181969D01*
X72605Y181971D01*
X72905Y182671D01*
X72904Y182677D01*
X72908Y182679D01*
X73108Y183579D01*
X73106Y183583D01*
X73107Y183584D01*
X73105Y183587D01*
X73109Y183590D01*
X73109Y186156D01*
X74378Y186644D01*
X74396Y186673D01*
X74408Y186678D01*
X74608Y187478D01*
X74604Y187486D01*
X74609Y187490D01*
X74609Y188390D01*
X74601Y188401D01*
X74605Y188409D01*
X74305Y189109D01*
X74277Y189125D01*
X74272Y189138D01*
X73485Y189334D01*
X73109Y189710D01*
X73109Y191390D01*
X73100Y191403D01*
X73104Y191412D01*
X72804Y192012D01*
X72781Y192023D01*
X72777Y192036D01*
X71977Y192336D01*
X71962Y192332D01*
X71955Y192339D01*
X70955Y192239D01*
X70940Y192225D01*
X70928Y192228D01*
X70328Y191728D01*
X70323Y191703D01*
X70311Y191696D01*
X70211Y190896D01*
X70213Y190892D01*
X70211Y190890D01*
X70211Y189245D01*
X69365Y189339D01*
X69362Y189337D01*
X69360Y189339D01*
X68660Y189339D01*
X68646Y189328D01*
X68636Y189333D01*
X67936Y188933D01*
X67923Y188902D01*
X67911Y188895D01*
X67811Y187995D01*
X67815Y187989D01*
X67811Y187985D01*
X67911Y186985D01*
X67927Y186968D01*
X67925Y186955D01*
X68425Y186455D01*
X68448Y186452D01*
X68454Y186441D01*
X69254Y186341D01*
X69262Y186346D01*
X69266Y186341D01*
X70026Y186436D01*
X70211Y185882D01*
X70211Y184200D01*
X69926Y183536D01*
X69055Y183439D01*
X69046Y183430D01*
X69038Y183434D01*
X68438Y183134D01*
X68424Y183106D01*
X68412Y183101D01*
X68212Y182201D01*
X68217Y182190D01*
X68211Y182185D01*
X68311Y181285D01*
X68332Y181263D01*
X68333Y181249D01*
X68933Y180849D01*
X68949Y180850D01*
X68954Y180841D01*
X69754Y180741D01*
X69761Y180745D01*
X69765Y180741D01*
X70765Y180841D01*
G37*
G36*
X37692Y162965D02*
X37692Y162965D01*
X37696Y162961D01*
X38496Y163061D01*
X38519Y163084D01*
X38533Y163086D01*
X38933Y163786D01*
X38930Y163803D01*
X38939Y163810D01*
X38939Y170610D01*
X38930Y170623D01*
X38934Y170632D01*
X38634Y171232D01*
X38613Y171243D01*
X38609Y171255D01*
X37909Y171555D01*
X37896Y171552D01*
X37890Y171559D01*
X36790Y171559D01*
X36774Y171547D01*
X36763Y171551D01*
X36163Y171151D01*
X36160Y171144D01*
X36155Y171145D01*
X35885Y170874D01*
X35219Y171350D01*
X35209Y171350D01*
X35207Y171356D01*
X34407Y171656D01*
X34395Y171653D01*
X34390Y171659D01*
X33590Y171659D01*
X33583Y171654D01*
X33578Y171658D01*
X32778Y171458D01*
X32761Y171436D01*
X32747Y171434D01*
X32347Y170734D01*
X32350Y170717D01*
X32341Y170710D01*
X32341Y169810D01*
X32350Y169797D01*
X32346Y169788D01*
X32746Y168988D01*
X32762Y168980D01*
X32763Y168969D01*
X33363Y168569D01*
X33391Y168571D01*
X33402Y168562D01*
X34199Y168762D01*
X34981Y168859D01*
X35751Y168475D01*
X36041Y167701D01*
X36041Y163610D01*
X36059Y163586D01*
X36058Y163572D01*
X36658Y163072D01*
X36679Y163071D01*
X36685Y163061D01*
X37685Y162961D01*
X37692Y162965D01*
G37*
G36*
X109362Y180745D02*
X109362Y180745D01*
X109366Y180741D01*
X110166Y180841D01*
X110189Y180864D01*
X110203Y180866D01*
X110603Y181566D01*
X110600Y181583D01*
X110609Y181590D01*
X110609Y188390D01*
X110602Y188399D01*
X110607Y188406D01*
X110407Y189006D01*
X110381Y189023D01*
X110377Y189036D01*
X109577Y189336D01*
X109565Y189333D01*
X109560Y189339D01*
X108460Y189339D01*
X108444Y189327D01*
X108433Y189331D01*
X107833Y188931D01*
X107828Y188918D01*
X107819Y188917D01*
X107647Y188660D01*
X106989Y189130D01*
X106978Y189130D01*
X106976Y189137D01*
X106076Y189437D01*
X106065Y189433D01*
X106060Y189439D01*
X105260Y189439D01*
X105253Y189434D01*
X105248Y189438D01*
X104448Y189238D01*
X104431Y189216D01*
X104417Y189214D01*
X104017Y188514D01*
X104020Y188493D01*
X104011Y188485D01*
X104111Y187585D01*
X104117Y187578D01*
X104114Y187573D01*
X104414Y186773D01*
X104434Y186760D01*
X104436Y186747D01*
X105136Y186347D01*
X105163Y186351D01*
X105174Y186343D01*
X105870Y186542D01*
X106750Y186639D01*
X107420Y186256D01*
X107711Y185481D01*
X107711Y182190D01*
X107714Y182186D01*
X107711Y182184D01*
X107811Y181384D01*
X107827Y181368D01*
X107825Y181355D01*
X108325Y180855D01*
X108348Y180852D01*
X108355Y180841D01*
X109355Y180741D01*
X109362Y180745D01*
G37*
G36*
X100964Y180841D02*
X100964Y180841D01*
X100982Y180857D01*
X100995Y180855D01*
X101495Y181355D01*
X101496Y181366D01*
X101498Y181368D01*
X101497Y181370D01*
X101498Y181378D01*
X101509Y181384D01*
X101609Y182184D01*
X101607Y182188D01*
X101609Y182190D01*
X101609Y187890D01*
X101606Y187894D01*
X101609Y187896D01*
X101509Y188696D01*
X101493Y188712D01*
X101495Y188725D01*
X100995Y189225D01*
X100972Y189228D01*
X100965Y189239D01*
X99965Y189339D01*
X99958Y189335D01*
X99955Y189339D01*
X99055Y189239D01*
X99027Y189212D01*
X99015Y189209D01*
X98715Y188509D01*
X98718Y188496D01*
X98711Y188490D01*
X98711Y181690D01*
X98719Y181679D01*
X98715Y181671D01*
X99015Y180971D01*
X99043Y180955D01*
X99048Y180942D01*
X99848Y180742D01*
X99859Y180747D01*
X99864Y180741D01*
X100964Y180841D01*
G37*
%LPC*%
G36*
X68073Y265696D02*
X68073Y265696D01*
X66979Y265846D01*
X66183Y266279D01*
X65697Y266956D01*
X65536Y267824D01*
X65536Y267849D01*
X65705Y268793D01*
X65985Y269158D01*
X66216Y269460D01*
X67037Y269863D01*
X68141Y269998D01*
X71438Y269998D01*
X71438Y265696D01*
X68073Y265696D01*
G37*
%LPD*%
%LPC*%
G36*
X61123Y197685D02*
X61123Y197685D01*
X61125Y197695D01*
X59732Y199087D01*
X59438Y199872D01*
X59340Y200760D01*
X59438Y201548D01*
X59733Y202335D01*
X60224Y202924D01*
X60913Y203416D01*
X61699Y203711D01*
X63370Y203711D01*
X63741Y203340D01*
X63741Y198264D01*
X63648Y197709D01*
X61190Y197709D01*
X61152Y197680D01*
X61144Y197678D01*
X61134Y197652D01*
X61123Y197685D01*
G37*
%LPD*%
%LPC*%
G36*
X100740Y265411D02*
X100740Y265411D01*
X99629Y265573D01*
X98805Y266061D01*
X98292Y266796D01*
X98122Y267686D01*
X98122Y267723D01*
X98301Y268707D01*
X98643Y269158D01*
X98837Y269415D01*
X99683Y269853D01*
X100808Y269998D01*
X103362Y269998D01*
X103362Y265411D01*
X100740Y265411D01*
G37*
%LPD*%
%LPC*%
G36*
X116967Y183739D02*
X116967Y183739D01*
X116299Y183930D01*
X116011Y184793D01*
X116105Y185266D01*
X116583Y185743D01*
X117465Y185841D01*
X117469Y185845D01*
X117472Y185842D01*
X118272Y186042D01*
X118297Y186074D01*
X118308Y186078D01*
X118508Y186878D01*
X118506Y186883D01*
X118506Y186884D01*
X118505Y186885D01*
X118501Y186893D01*
X118508Y186901D01*
X118308Y187801D01*
X118285Y187821D01*
X118282Y187834D01*
X117682Y188134D01*
X117669Y188132D01*
X117665Y188139D01*
X116692Y188236D01*
X116412Y188796D01*
X116601Y189549D01*
X117366Y189741D01*
X119048Y189741D01*
X119611Y189460D01*
X119611Y184393D01*
X119517Y183739D01*
X116967Y183739D01*
G37*
%LPD*%
G36*
X100965Y190541D02*
X100965Y190541D01*
X100984Y190559D01*
X100998Y190558D01*
X101498Y191158D01*
X101498Y191166D01*
X101499Y191166D01*
X101498Y191167D01*
X101499Y191178D01*
X101509Y191184D01*
X101609Y191984D01*
X101602Y191995D01*
X101608Y192002D01*
X101408Y192802D01*
X101390Y192816D01*
X101391Y192828D01*
X100891Y193228D01*
X100871Y193229D01*
X100864Y193239D01*
X99764Y193339D01*
X99751Y193331D01*
X99743Y193336D01*
X98943Y193036D01*
X98926Y193010D01*
X98913Y193006D01*
X98713Y192406D01*
X98717Y192395D01*
X98711Y192390D01*
X98711Y191390D01*
X98717Y191382D01*
X98713Y191376D01*
X98913Y190676D01*
X98940Y190656D01*
X98944Y190643D01*
X99244Y190543D01*
X99251Y190546D01*
X99254Y190541D01*
X100054Y190441D01*
X100061Y190445D01*
X100065Y190441D01*
X100965Y190541D01*
G37*
%LPC*%
G36*
X95093Y165959D02*
X95093Y165959D01*
X94318Y166056D01*
X93837Y166728D01*
X93741Y167503D01*
X94028Y168174D01*
X94799Y168559D01*
X95572Y168463D01*
X96247Y167980D01*
X96439Y167309D01*
X96246Y166535D01*
X95670Y165959D01*
X95093Y165959D01*
G37*
%LPD*%
%LPC*%
G36*
X91894Y184026D02*
X91894Y184026D01*
X91886Y184024D01*
X91884Y184033D01*
X91200Y184424D01*
X90912Y185192D01*
X90929Y185252D01*
X90971Y185400D01*
X90985Y185449D01*
X91027Y185597D01*
X91028Y185597D01*
X91027Y185597D01*
X91070Y185745D01*
X91084Y185794D01*
X91104Y185866D01*
X91685Y186544D01*
X92450Y186639D01*
X93124Y186254D01*
X93512Y185574D01*
X93608Y184808D01*
X93327Y184527D01*
X92742Y184039D01*
X91960Y184039D01*
X91930Y184017D01*
X91918Y184015D01*
X91900Y183986D01*
X91894Y184026D01*
G37*
%LPD*%
%LPC*%
G36*
X48972Y185839D02*
X48972Y185839D01*
X48422Y186114D01*
X48697Y186849D01*
X49460Y187039D01*
X50233Y186846D01*
X50801Y186183D01*
X50630Y185839D01*
X48972Y185839D01*
G37*
%LPD*%
%LPC*%
G36*
X46712Y168054D02*
X46712Y168054D01*
X46699Y168047D01*
X46690Y168059D01*
X45102Y168059D01*
X44552Y168334D01*
X44827Y169069D01*
X45589Y169259D01*
X46264Y169066D01*
X46930Y168400D01*
X46746Y168032D01*
X46748Y168023D01*
X46742Y168020D01*
X46738Y168001D01*
X46712Y168054D01*
G37*
%LPD*%
%LPC*%
G36*
X107165Y168159D02*
X107165Y168159D01*
X107435Y168791D01*
X108098Y170210D01*
X108247Y169986D01*
X108935Y168511D01*
X108760Y168159D01*
X107165Y168159D01*
G37*
%LPD*%
D10*
X72390Y457200D02*
X72390Y431800D01*
X72390Y406400D02*
X72390Y381000D01*
X72390Y406400D02*
X85090Y431800D01*
X59690Y431800D01*
X72390Y406400D01*
X85090Y406400D01*
X72390Y406400D02*
X59690Y406400D01*
X53340Y425450D02*
X34290Y444500D01*
X53340Y444500D02*
X34290Y463550D01*
X91440Y412750D02*
X110490Y393700D01*
X91440Y393700D02*
X110490Y374650D01*
X53340Y412750D02*
X34290Y393700D01*
X53340Y393700D02*
X34290Y374650D01*
X91440Y425450D02*
X110490Y444500D01*
X91440Y444500D02*
X110490Y463550D01*
D11*
X72390Y481965D03*
X72390Y13335D03*
M02*
