G04 EAGLE Gerber RS-274X export*
G75*
%MOMM*%
%FSLAX34Y34*%
%LPD*%
%INSoldermask Top*%
%IPPOS*%
%AMOC8*
5,1,8,0,0,1.08239X$1,22.5*%
G01*
%ADD10C,2.032000*%
%ADD11C,0.243431*%
%ADD12C,0.449434*%
%ADD13C,0.255816*%
%ADD14C,0.513909*%
%ADD15R,2.032000X2.032000*%


D10*
X72390Y330200D03*
X72390Y63500D03*
X72390Y228600D03*
X72390Y304800D03*
X21590Y406400D03*
X21590Y431800D03*
D11*
X40445Y428555D02*
X40445Y439645D01*
X53535Y439645D01*
X53535Y428555D01*
X40445Y428555D01*
X40445Y430867D02*
X53535Y430867D01*
X53535Y433179D02*
X40445Y433179D01*
X40445Y435491D02*
X53535Y435491D01*
X53535Y437803D02*
X40445Y437803D01*
X40445Y409645D02*
X40445Y398555D01*
X40445Y409645D02*
X53535Y409645D01*
X53535Y398555D01*
X40445Y398555D01*
X40445Y400867D02*
X53535Y400867D01*
X53535Y403179D02*
X40445Y403179D01*
X40445Y405491D02*
X53535Y405491D01*
X53535Y407803D02*
X40445Y407803D01*
D12*
X94275Y413845D02*
X101305Y413845D01*
X101305Y406815D01*
X94275Y406815D01*
X94275Y413845D01*
X94275Y411084D02*
X101305Y411084D01*
X101305Y431385D02*
X94275Y431385D01*
X101305Y431385D02*
X101305Y424355D01*
X94275Y424355D01*
X94275Y431385D01*
X94275Y428624D02*
X101305Y428624D01*
D13*
X120707Y426583D02*
X120707Y421617D01*
X120707Y426583D02*
X125673Y426583D01*
X125673Y421617D01*
X120707Y421617D01*
X120707Y424047D02*
X125673Y424047D01*
X125673Y426477D02*
X120707Y426477D01*
X120707Y416583D02*
X120707Y411617D01*
X120707Y416583D02*
X125673Y416583D01*
X125673Y411617D01*
X120707Y411617D01*
X120707Y414047D02*
X125673Y414047D01*
X125673Y416477D02*
X120707Y416477D01*
D10*
X21590Y12700D03*
X46990Y12700D03*
X72390Y12700D03*
X97790Y12700D03*
X123190Y12700D03*
X21590Y482600D03*
X46990Y482600D03*
X72390Y482600D03*
X97790Y482600D03*
X123190Y482600D03*
D14*
X68197Y433793D02*
X68197Y425407D01*
X68197Y433793D02*
X76583Y433793D01*
X76583Y425407D01*
X68197Y425407D01*
X68197Y430289D02*
X76583Y430289D01*
X68197Y412793D02*
X68197Y404407D01*
X68197Y412793D02*
X76583Y412793D01*
X76583Y404407D01*
X68197Y404407D01*
X68197Y409289D02*
X76583Y409289D01*
D15*
X46990Y139550D03*
D10*
X72390Y139550D03*
X97790Y139550D03*
M02*
