M48
;GenerationSoftware,Autodesk,EAGLE,9.6.2*%
;CreationDate,2022-09-29T23:24:55Z*%
FMAT,2
ICI,OFF
METRIC,TZ,000.000
T3C0.381
T2C0.900
T1C1.016
%
G90
M71
T1
X7239Y33020
X7239Y6350
X2159Y40640
X2159Y43180
X2159Y1270
X4699Y1270
X7239Y1270
X9779Y1270
X12319Y1270
X2159Y48260
X4699Y48260
X7239Y48260
X9779Y48260
X12319Y48260
X4699Y13955
X7239Y13955
X9779Y13955
T2
X7239Y22860
X7239Y30480
T3
X889Y45085
X13589Y45085
X8509Y36830
X5969Y36830
X5969Y17780
X8509Y17780
M30